<?xml version='1.0' encoding='utf-8'?>
<svg xmlns="http://www.w3.org/2000/svg" enable-background="new 0 0 128 128" version="1.1" viewBox="0 0 128 128"> <path d="M106.423,99V83h4V6.205c0-2.417-2.368-4.205-4.784-4.205H48.311L18.423,31.255v90.54 c0,2.416,1.566,4.205,3.982,4.205h83.233c2.417,0,4.784-1.788,4.784-4.205V99H106.423z" fill="#2E2E2E"/> <g fill="#F7A93B"> <rect x="50.998" y="7.527" width="6.919" height="28.897"/> <rect x="62.496" y="7.527" width="6.919" height="28.897"/> <rect x="73.994" y="7.527" width="6.919" height="28.897"/> <rect x="85.492" y="7.527" width="6.919" height="28.897"/> <rect x="96.99" y="7.527" width="6.919" height="28.897"/> </g> <g fill="#2E2E2E"> <path d="M26.468,67.5h-0.541v-6.398h0.541V67.5z"/> <path d="m29.838 67.144c0.167 0 0.327-0.024 0.481-0.073 0.153-0.048 0.291-0.119 0.411-0.213s0.219-0.209 0.296-0.347 0.123-0.297 0.134-0.479h0.505c-0.012 0.226-0.068 0.434-0.169 0.624-0.102 0.19-0.235 0.354-0.4 0.492s-0.356 0.246-0.573 0.323-0.445 0.116-0.686 0.116c-0.334 0-0.627-0.061-0.879-0.183-0.252-0.121-0.464-0.289-0.635-0.503-0.172-0.214-0.301-0.465-0.387-0.754-0.087-0.288-0.13-0.6-0.13-0.934v-0.183c0-0.334 0.043-0.645 0.13-0.934 0.086-0.289 0.214-0.539 0.384-0.752 0.17-0.212 0.381-0.38 0.635-0.503 0.253-0.123 0.545-0.185 0.876-0.185 0.255 0 0.491 0.04 0.709 0.119s0.409 0.192 0.571 0.338c0.163 0.146 0.292 0.325 0.389 0.534s0.151 0.443 0.163 0.701h-0.505c-0.012-0.193-0.054-0.366-0.125-0.519s-0.167-0.283-0.285-0.391c-0.119-0.108-0.257-0.191-0.413-0.248-0.157-0.058-0.325-0.086-0.503-0.086-0.272 0-0.503 0.053-0.692 0.158s-0.344 0.248-0.464 0.426-0.208 0.384-0.262 0.615-0.081 0.473-0.081 0.725v0.185c0 0.255 0.027 0.499 0.081 0.731 0.054 0.233 0.141 0.438 0.26 0.615 0.118 0.178 0.273 0.319 0.466 0.424 0.193 0.108 0.426 0.161 0.698 0.161z"/> <path d="m32.427 65.052c0-0.346 0.051-0.665 0.151-0.958 0.102-0.293 0.244-0.545 0.429-0.758 0.185-0.212 0.407-0.378 0.668-0.499s0.551-0.18 0.87-0.18c0.325 0 0.619 0.06 0.881 0.18s0.486 0.287 0.67 0.499c0.185 0.213 0.327 0.465 0.426 0.758s0.149 0.612 0.149 0.958v0.145c0 0.346-0.05 0.665-0.149 0.958s-0.242 0.546-0.426 0.758c-0.185 0.213-0.407 0.378-0.668 0.497-0.261 0.118-0.552 0.178-0.875 0.178s-0.614-0.06-0.875-0.178c-0.261-0.119-0.484-0.284-0.67-0.497-0.186-0.212-0.329-0.465-0.431-0.758-0.101-0.293-0.151-0.612-0.151-0.958v-0.145zm0.527 0.145c0 0.261 0.035 0.509 0.105 0.745s0.173 0.442 0.308 0.619c0.135 0.178 0.302 0.319 0.501 0.424s0.428 0.158 0.686 0.158 0.485-0.053 0.684-0.158c0.197-0.105 0.364-0.247 0.499-0.424s0.237-0.383 0.308-0.619 0.105-0.484 0.105-0.745v-0.145c0-0.255-0.035-0.5-0.105-0.736s-0.173-0.443-0.308-0.622-0.303-0.321-0.503-0.429c-0.201-0.106-0.43-0.16-0.688-0.16-0.255 0-0.481 0.054-0.679 0.16-0.198 0.107-0.364 0.25-0.499 0.429s-0.237 0.386-0.308 0.622-0.105 0.481-0.105 0.736v0.145z"/> <path d="m38.258 62.745 0.018 0.813c0.082-0.135 0.176-0.258 0.283-0.369s0.227-0.207 0.358-0.286 0.274-0.14 0.426-0.183c0.152-0.042 0.313-0.063 0.483-0.063 0.237 0 0.45 0.032 0.637 0.097s0.346 0.167 0.477 0.308 0.23 0.322 0.299 0.543 0.104 0.488 0.104 0.802v3.093h-0.523v-3.098c0-0.246-0.026-0.451-0.079-0.615s-0.127-0.296-0.224-0.396-0.215-0.17-0.354-0.213c-0.14-0.042-0.294-0.063-0.464-0.063-0.188 0-0.357 0.032-0.51 0.095s-0.287 0.147-0.404 0.252-0.218 0.226-0.303 0.363c-0.085 0.136-0.152 0.276-0.202 0.419v3.256h-0.523v-4.755h0.501z"/> <path d="m47.355 65.505c-0.035 0.325-0.111 0.617-0.229 0.875s-0.275 0.476-0.472 0.655c-0.198 0.179-0.436 0.316-0.712 0.411-0.277 0.095-0.591 0.143-0.943 0.143-0.363 0-0.693-0.069-0.989-0.207s-0.549-0.333-0.76-0.586-0.374-0.558-0.488-0.912-0.171-0.747-0.171-1.178v-0.804c0-0.431 0.057-0.824 0.171-1.18 0.114-0.355 0.277-0.66 0.49-0.912 0.212-0.252 0.469-0.447 0.771-0.586s0.64-0.209 1.015-0.209c0.34 0 0.646 0.047 0.918 0.141s0.506 0.23 0.701 0.411c0.195 0.18 0.352 0.399 0.471 0.659 0.118 0.259 0.194 0.553 0.226 0.881h-0.544c-0.032-0.258-0.091-0.488-0.176-0.692-0.085-0.203-0.2-0.374-0.345-0.512s-0.32-0.243-0.527-0.316c-0.206-0.073-0.447-0.11-0.723-0.11-0.299 0-0.565 0.058-0.8 0.173-0.234 0.116-0.434 0.279-0.598 0.49s-0.29 0.465-0.376 0.763-0.129 0.627-0.129 0.991v0.813c0 0.352 0.041 0.676 0.123 0.974s0.202 0.554 0.36 0.769c0.158 0.216 0.353 0.383 0.584 0.503s0.497 0.18 0.795 0.18c0.565 0 0.992-0.135 1.279-0.406s0.464-0.678 0.532-1.22h0.546z"/> <path d="m50.743 63.193c-0.111-0.021-0.23-0.031-0.356-0.031-0.179 0-0.34 0.026-0.483 0.079s-0.27 0.127-0.38 0.222c-0.109 0.095-0.202 0.208-0.276 0.338-0.075 0.131-0.134 0.275-0.178 0.433v3.266h-0.523v-4.755h0.514l9e-3 0.756c0.129-0.261 0.304-0.466 0.525-0.617s0.493-0.227 0.815-0.227c0.064 0 0.13 6e-3 0.198 0.018s0.117 0.025 0.149 0.04l-0.014 0.478z"/> <path d="m54.399 67.5c-0.029-0.082-0.052-0.183-0.068-0.301-0.017-0.119-0.027-0.24-0.033-0.363-0.079 0.103-0.173 0.199-0.281 0.29s-0.23 0.17-0.365 0.237-0.283 0.122-0.444 0.163-0.335 0.062-0.523 0.062c-0.231 0-0.442-0.034-0.63-0.101-0.189-0.067-0.351-0.162-0.483-0.284-0.134-0.121-0.237-0.264-0.31-0.428s-0.11-0.343-0.11-0.536c0-0.231 0.05-0.44 0.149-0.626 0.1-0.186 0.243-0.344 0.431-0.475 0.188-0.13 0.415-0.229 0.684-0.299 0.268-0.068 0.569-0.103 0.903-0.103h0.976v-0.541c0-0.34-0.105-0.607-0.314-0.802-0.21-0.195-0.515-0.292-0.917-0.292-0.185 0-0.354 0.025-0.51 0.075s-0.29 0.119-0.402 0.207c-0.113 0.088-0.201 0.19-0.264 0.305-0.063 0.116-0.095 0.24-0.095 0.372l-0.527-4e-3c0-0.179 0.044-0.352 0.132-0.519s0.211-0.315 0.371-0.446c0.16-0.13 0.352-0.235 0.576-0.314s0.472-0.119 0.745-0.119c0.252 0 0.484 0.032 0.697 0.097 0.212 0.064 0.395 0.161 0.547 0.29s0.271 0.29 0.356 0.483 0.127 0.419 0.127 0.677v2.303c0 0.082 3e-3 0.167 9e-3 0.255s0.016 0.173 0.028 0.255c0.014 0.082 0.029 0.16 0.046 0.235 0.018 0.074 0.038 0.14 0.062 0.195v0.052h-0.563zm-1.652-0.378c0.19 0 0.367-0.024 0.53-0.072 0.162-0.049 0.31-0.115 0.441-0.2s0.246-0.184 0.343-0.297c0.097-0.112 0.174-0.235 0.233-0.367v-1.046h-0.901c-0.27 0-0.511 0.024-0.723 0.073-0.213 0.048-0.392 0.118-0.539 0.208s-0.259 0.202-0.336 0.332c-0.078 0.131-0.116 0.278-0.116 0.442 0 0.129 0.025 0.25 0.075 0.363s0.121 0.211 0.213 0.294c0.092 0.084 0.204 0.149 0.336 0.198 0.132 0.048 0.28 0.072 0.444 0.072z"/> <path d="m56.597 67.5v-4.324h-0.787v-0.431h0.787v-0.589c0-0.24 0.032-0.454 0.097-0.642s0.157-0.344 0.279-0.47c0.121-0.126 0.269-0.222 0.441-0.288 0.173-0.066 0.369-0.099 0.589-0.099 0.091 0 0.184 6e-3 0.279 0.018s0.188 0.031 0.279 0.057l-0.04 0.439c-0.073-0.018-0.147-0.031-0.222-0.04s-0.161-0.013-0.257-0.013c-0.29 0-0.516 0.09-0.677 0.271-0.161 0.18-0.242 0.436-0.242 0.767v0.589h1.134v0.431h-1.134v4.324h-0.526z"/> <path d="m60.016 61.528v1.217h0.984v0.431h-0.984v3.168c0 0.167 0.017 0.301 0.051 0.402 0.033 0.102 0.079 0.181 0.136 0.237 0.058 0.058 0.123 0.096 0.198 0.114 0.074 0.02 0.153 0.029 0.235 0.029 0.079 0 0.155-5e-3 0.229-0.015s0.139-0.02 0.198-0.029l0.022 0.431c-0.064 0.023-0.149 0.042-0.252 0.055-0.104 0.013-0.208 0.02-0.31 0.02-0.149 0-0.288-0.02-0.416-0.06-0.127-0.039-0.236-0.107-0.327-0.204s-0.162-0.225-0.213-0.385c-0.052-0.159-0.077-0.358-0.077-0.595v-3.168h-0.875v-0.431h0.875v-1.217h0.526z"/> <path d="m64.938 66.292c0-0.097-0.017-0.193-0.051-0.29s-0.097-0.188-0.188-0.275c-0.093-0.086-0.222-0.167-0.387-0.241-0.166-0.075-0.38-0.14-0.644-0.196s-0.499-0.12-0.706-0.193c-0.206-0.073-0.381-0.162-0.522-0.266-0.143-0.104-0.25-0.228-0.323-0.371s-0.11-0.312-0.11-0.505c0-0.176 0.039-0.343 0.117-0.501 0.077-0.158 0.188-0.296 0.334-0.413 0.145-0.117 0.32-0.21 0.527-0.279 0.206-0.069 0.438-0.104 0.696-0.104 0.275 0 0.522 0.036 0.74 0.107 0.218 0.072 0.403 0.172 0.554 0.299 0.151 0.128 0.266 0.278 0.345 0.451s0.119 0.36 0.119 0.563h-0.527c0-0.123-0.027-0.243-0.081-0.36-0.055-0.117-0.134-0.22-0.237-0.31-0.104-0.089-0.233-0.162-0.387-0.217-0.154-0.056-0.329-0.083-0.525-0.083-0.205 0-0.38 0.025-0.525 0.075s-0.264 0.114-0.355 0.193c-0.093 0.079-0.16 0.168-0.202 0.266-0.043 0.098-0.064 0.197-0.064 0.296 0 0.105 0.016 0.202 0.048 0.288 0.032 0.087 0.095 0.167 0.187 0.242 0.093 0.074 0.221 0.144 0.387 0.206 0.166 0.063 0.382 0.125 0.648 0.187 0.287 0.067 0.535 0.142 0.743 0.224s0.38 0.18 0.516 0.292c0.137 0.113 0.237 0.242 0.304 0.387 0.065 0.146 0.099 0.313 0.099 0.503 0 0.196-0.041 0.375-0.123 0.539-0.082 0.162-0.199 0.302-0.352 0.417-0.152 0.116-0.337 0.206-0.554 0.271s-0.458 0.097-0.725 0.097c-0.302 0-0.568-0.039-0.8-0.116-0.231-0.078-0.426-0.183-0.584-0.314s-0.278-0.283-0.358-0.455c-0.081-0.171-0.121-0.349-0.121-0.534h0.527c0.012 0.188 0.06 0.344 0.145 0.468s0.19 0.224 0.316 0.299c0.126 0.074 0.266 0.128 0.42 0.16 0.153 0.032 0.305 0.048 0.455 0.048 0.199 0 0.375-0.023 0.527-0.07s0.28-0.11 0.384-0.189 0.183-0.17 0.235-0.272 0.078-0.213 0.078-0.324z"/> <path d="m67.126 62.745 0.018 0.773c0.079-0.129 0.17-0.247 0.275-0.354 0.104-0.107 0.22-0.198 0.349-0.272 0.129-0.075 0.27-0.133 0.422-0.174s0.316-0.062 0.492-0.062c0.349 0 0.647 0.073 0.896 0.22s0.426 0.381 0.532 0.703c0.076-0.132 0.167-0.254 0.274-0.367 0.107-0.112 0.229-0.21 0.365-0.292s0.286-0.146 0.45-0.193 0.341-0.07 0.532-0.07c0.246 0 0.466 0.033 0.659 0.099s0.356 0.17 0.49 0.313 0.235 0.323 0.306 0.542 0.105 0.483 0.105 0.791v3.098h-0.527v-3.103c0-0.252-0.028-0.46-0.083-0.626s-0.135-0.297-0.237-0.396-0.225-0.167-0.367-0.205c-0.143-0.038-0.298-0.057-0.468-0.057-0.223 3e-3 -0.417 0.043-0.584 0.121s-0.309 0.176-0.424 0.294c-0.116 0.119-0.206 0.251-0.271 0.398s-0.103 0.289-0.114 0.426v3.148h-0.527v-3.142c0-0.237-0.028-0.435-0.083-0.593s-0.135-0.286-0.237-0.382-0.227-0.166-0.369-0.207c-0.143-0.041-0.3-0.062-0.473-0.062-0.199 0-0.375 0.032-0.527 0.095s-0.285 0.147-0.397 0.252c-0.113 0.105-0.206 0.226-0.279 0.36s-0.132 0.274-0.176 0.417v3.262h-0.527v-4.755h0.505z"/> <path d="m77.625 67.5c-0.029-0.082-0.052-0.183-0.068-0.301-0.017-0.119-0.027-0.24-0.033-0.363-0.079 0.103-0.173 0.199-0.281 0.29s-0.23 0.17-0.365 0.237-0.283 0.122-0.444 0.163-0.335 0.062-0.523 0.062c-0.231 0-0.442-0.034-0.63-0.101-0.189-0.067-0.351-0.162-0.483-0.284-0.134-0.121-0.237-0.264-0.31-0.428s-0.11-0.343-0.11-0.536c0-0.231 0.05-0.44 0.149-0.626 0.1-0.186 0.243-0.344 0.431-0.475 0.188-0.13 0.415-0.229 0.684-0.299 0.268-0.068 0.569-0.103 0.903-0.103h0.976v-0.541c0-0.34-0.105-0.607-0.314-0.802-0.21-0.195-0.515-0.292-0.917-0.292-0.185 0-0.354 0.025-0.51 0.075s-0.29 0.119-0.402 0.207c-0.113 0.088-0.201 0.19-0.264 0.305-0.063 0.116-0.095 0.24-0.095 0.372l-0.527-4e-3c0-0.179 0.044-0.352 0.132-0.519s0.211-0.315 0.371-0.446c0.16-0.13 0.352-0.235 0.576-0.314s0.472-0.119 0.745-0.119c0.252 0 0.484 0.032 0.697 0.097 0.212 0.064 0.395 0.161 0.547 0.29s0.271 0.29 0.356 0.483 0.127 0.419 0.127 0.677v2.303c0 0.082 3e-3 0.167 9e-3 0.255s0.016 0.173 0.028 0.255c0.014 0.082 0.029 0.16 0.046 0.235 0.018 0.074 0.038 0.14 0.062 0.195v0.052h-0.563zm-1.653-0.378c0.19 0 0.367-0.024 0.53-0.072 0.162-0.049 0.31-0.115 0.441-0.2s0.246-0.184 0.343-0.297c0.097-0.112 0.174-0.235 0.233-0.367v-1.046h-0.901c-0.27 0-0.511 0.024-0.723 0.073-0.213 0.048-0.392 0.118-0.539 0.208s-0.259 0.202-0.336 0.332c-0.078 0.131-0.116 0.278-0.116 0.442 0 0.129 0.025 0.25 0.075 0.363s0.121 0.211 0.213 0.294c0.092 0.084 0.204 0.149 0.336 0.198 0.132 0.048 0.28 0.072 0.444 0.072z"/> <path d="m79.945 62.745 0.018 0.813c0.082-0.135 0.176-0.258 0.283-0.369s0.227-0.207 0.358-0.286 0.274-0.14 0.426-0.183c0.152-0.042 0.313-0.063 0.483-0.063 0.237 0 0.45 0.032 0.637 0.097s0.346 0.167 0.477 0.308 0.23 0.322 0.299 0.543 0.104 0.488 0.104 0.802v3.093h-0.523v-3.098c0-0.246-0.026-0.451-0.079-0.615s-0.127-0.296-0.224-0.396-0.215-0.17-0.354-0.213c-0.14-0.042-0.294-0.063-0.464-0.063-0.188 0-0.357 0.032-0.51 0.095s-0.287 0.147-0.404 0.252-0.218 0.226-0.303 0.363c-0.085 0.136-0.152 0.276-0.202 0.419v3.256h-0.523v-4.755h0.501z"/> <path d="m84.339 67.184c0-0.103 0.033-0.189 0.099-0.262 0.065-0.071 0.157-0.107 0.274-0.107s0.209 0.036 0.277 0.107c0.067 0.072 0.101 0.159 0.101 0.262s-0.034 0.187-0.101 0.253c-0.067 0.065-0.16 0.099-0.277 0.099s-0.209-0.033-0.274-0.099c-0.066-0.067-0.099-0.151-0.099-0.253z"/> <path d="m88.294 67.144c0.167 0 0.327-0.024 0.481-0.073 0.153-0.048 0.291-0.119 0.411-0.213s0.219-0.209 0.296-0.347 0.123-0.297 0.134-0.479h0.505c-0.012 0.226-0.068 0.434-0.169 0.624-0.102 0.19-0.235 0.354-0.4 0.492s-0.356 0.246-0.573 0.323-0.445 0.116-0.686 0.116c-0.334 0-0.627-0.061-0.879-0.183-0.252-0.121-0.464-0.289-0.635-0.503-0.172-0.214-0.301-0.465-0.387-0.754-0.087-0.288-0.13-0.6-0.13-0.934v-0.183c0-0.334 0.043-0.645 0.13-0.934 0.086-0.289 0.214-0.539 0.384-0.752 0.17-0.212 0.381-0.38 0.635-0.503 0.253-0.123 0.545-0.185 0.876-0.185 0.255 0 0.491 0.04 0.709 0.119s0.409 0.192 0.571 0.338c0.163 0.146 0.292 0.325 0.389 0.534s0.151 0.443 0.163 0.701h-0.505c-0.012-0.193-0.054-0.366-0.125-0.519s-0.167-0.283-0.285-0.391c-0.119-0.108-0.257-0.191-0.413-0.248-0.157-0.058-0.325-0.086-0.503-0.086-0.272 0-0.503 0.053-0.692 0.158s-0.344 0.248-0.464 0.426-0.208 0.384-0.262 0.615-0.081 0.473-0.081 0.725v0.185c0 0.255 0.027 0.499 0.081 0.731 0.054 0.233 0.141 0.438 0.26 0.615 0.118 0.178 0.273 0.319 0.466 0.424 0.194 0.108 0.426 0.161 0.698 0.161z"/> <path d="m90.883 65.052c0-0.346 0.051-0.665 0.151-0.958 0.102-0.293 0.244-0.545 0.429-0.758 0.185-0.212 0.407-0.378 0.668-0.499s0.551-0.18 0.87-0.18c0.325 0 0.619 0.06 0.881 0.18s0.486 0.287 0.67 0.499c0.185 0.213 0.327 0.465 0.426 0.758s0.149 0.612 0.149 0.958v0.145c0 0.346-0.05 0.665-0.149 0.958s-0.242 0.546-0.426 0.758c-0.185 0.213-0.407 0.378-0.668 0.497-0.261 0.118-0.552 0.178-0.875 0.178s-0.614-0.06-0.875-0.178c-0.261-0.119-0.484-0.284-0.67-0.497-0.186-0.212-0.329-0.465-0.431-0.758-0.101-0.293-0.151-0.612-0.151-0.958v-0.145zm0.527 0.145c0 0.261 0.035 0.509 0.105 0.745s0.173 0.442 0.308 0.619c0.135 0.178 0.302 0.319 0.501 0.424s0.428 0.158 0.686 0.158 0.485-0.053 0.684-0.158c0.197-0.105 0.364-0.247 0.499-0.424s0.237-0.383 0.308-0.619 0.105-0.484 0.105-0.745v-0.145c0-0.255-0.035-0.5-0.105-0.736s-0.173-0.443-0.308-0.622-0.303-0.321-0.503-0.429c-0.201-0.106-0.43-0.16-0.688-0.16-0.255 0-0.481 0.054-0.679 0.16-0.198 0.107-0.364 0.25-0.499 0.429s-0.237 0.386-0.308 0.622-0.105 0.481-0.105 0.736v0.145z"/> <path d="m96.692 62.745 0.018 0.773c0.079-0.129 0.17-0.247 0.275-0.354 0.104-0.107 0.22-0.198 0.349-0.272 0.129-0.075 0.27-0.133 0.422-0.174s0.316-0.062 0.492-0.062c0.349 0 0.647 0.073 0.896 0.22s0.426 0.381 0.532 0.703c0.076-0.132 0.167-0.254 0.274-0.367 0.107-0.112 0.229-0.21 0.365-0.292s0.286-0.146 0.45-0.193 0.341-0.07 0.532-0.07c0.246 0 0.466 0.033 0.659 0.099s0.356 0.17 0.49 0.313 0.235 0.323 0.306 0.542 0.105 0.483 0.105 0.791v3.098h-0.527v-3.103c0-0.252-0.028-0.46-0.083-0.626s-0.135-0.297-0.237-0.396-0.225-0.167-0.367-0.205c-0.143-0.038-0.298-0.057-0.468-0.057-0.223 3e-3 -0.417 0.043-0.584 0.121s-0.309 0.176-0.424 0.294c-0.116 0.119-0.206 0.251-0.271 0.398s-0.103 0.289-0.114 0.426v3.148h-0.527v-3.142c0-0.237-0.028-0.435-0.083-0.593s-0.135-0.286-0.237-0.382-0.225-0.166-0.367-0.207c-0.143-0.041-0.3-0.062-0.473-0.062-0.199 0-0.375 0.032-0.527 0.095s-0.285 0.147-0.397 0.252c-0.113 0.105-0.206 0.226-0.279 0.36s-0.132 0.274-0.176 0.417v3.262h-0.527v-4.755h0.503z"/> </g> <path d="m34.324 73.608h60.199c2.761 0 5 2.239 5 5v31.441c0 2.761-2.239 5-5 5h-60.199c-2.761 0-5-2.239-5-5v-31.441c0-2.761 2.238-5 5-5z" fill="#474747"/> </svg>