<?xml version='1.0' encoding='utf-8'?>
<svg xmlns="http://www.w3.org/2000/svg" enable-background="new 0 0 324.96 274.187" viewBox="0 0 324.96 274.19"> <g fill-rule="evenodd"> <path d="m63.84,12.363c-.116.844-.826,1.094-1.92.96 .116-.844.826-1.094 1.92-.96z" fill="#fff"/> <path d="m115.2,21.483c-4.173,1.427-6.259,4.941-12.96,3.84-.591.209-.986.614-.96,1.44-5.893.191-11.463.817-15.84.48-.497-3.456 6.269-1.463 7.68-3.84 1.7-.26 1.18,1.7 2.88,1.44 2.069-.331 2.854-1.946 5.76-1.44 1.748-2.88 3.797-2.818 6.72-4.8 .26-1.7-1.7-1.181-1.44-2.88 3.2-.403 7.34,2.196 8.16,5.76z" fill="#fff"/> <path d="m72.48,33.483c-.788.972-1.605,1.915-3.36,1.92-.575-2.774 2.302-3.453 3.36-1.92z" fill="#fff"/> <path d="m95.52,38.283c-.448,2.912-3.181,3.54-2.88,7.2 1.505-3.212 7.391-6.129 11.04-2.88 .311,2.389.233,2.042-.48,3.84-4.254.568-7.219,1.299-10.56-.48-1.273-.153.449,2.689-1.44,1.92-1.014-3.737-.028-8.719 4.32-9.6z"/> <path d="m80.64,40.203c.856,1.779 3.174,3.305 2.4,5.28-3.875.683-11.17,1.47-12-1.44-.185-.649 2.402-3.465 3.36-3.84 1.612-.632 4.35.551 6.24,0zm-6.72,2.88v.96c1.182.746 1.412-1.63.48-1.44-.027.293-.072.568-.48.48z"/> <path d="m74.4,42.603c.932-.19.702,2.186-.48,1.44v-.96c.408.088.453-.187.48-.48z" fill="#fff"/> <path d="m94.08,52.683c2.167-.062 2.289,2.443.96,3.36-1.373-.067-.878-2.002-.96-3.36z"/> <path d="m83.04,53.643c.197,1.156-.876,1.043-.48,2.4-.861.061-1.012-.588-1.92-.48-.318-1.817 1.117-3.147 2.4-1.92z"/> <path d="m84,53.643c1.488-.048 2.293.586 3.36.96v1.92c-1.469-.291-2.501-1.02-3.84-1.44 .254-.386.501-.779.48-1.44z"/> <path d="m89.76,54.123c.994.285 3.153-.593 3.36.48-.684,1.82-3.648,2.666-3.36-.48z"/> <path d="m92.16,65.163c-1.846,2.067-7.214,1.043-9.6.48-.295-.428-.58-.859 0-.96 2.614-.397 7.878-.517 9.6.48z" fill="#fff"/> <path d="m92.16 66.603c2.385 3.485-7.822 3.425-10.08 1.44 3.206-1.063 7.66 1.315 10.08-1.44z" fill="#fff"/> <path d="m82.08,91.563c-3.147,3.573-5.621,7.819-9.12,11.04-.271-.999-1.371-1.552-.48-2.4-3.98-4.339-5.004-11.636-8.16-16.8 1.344-2.176 3.047-3.993 5.76-4.8 2.073,6.25 6.797,9.846 12,12.963z" fill="#fff"/> <path d="m109.44,78.603c6.218,1.454 16.292,4.064 23.04,4.8 7.418.808 8.795,1.627 12.48,7.2 2.18,3.296 3.832,5.531 5.76,9.6 1.833,3.867 1.805,4.825 2.4,10.08 .466,4.113 3.49,8.368 5.28,12.96 1.754,4.501 3.39,9.035 5.279,12.48 2.155,3.927 4.911,7.397 6.721,11.041 2.097,4.221 2.953,8.414 4.8,12-2.679,5.32-8.834,7.165-16.32,7.68 2.167,2.802 6.644,1.944 9.6.96 4.474-1.49 7.798-6.479 10.08-9.12 1.729.672.973,3.827 2.399,4.8 1.257.175 2.808.419 5.28.48 12.889,11.431 26.32,22.319 40.8,32.16-1.025,1.856-2.938,2.183-4.32,3.84-2.203,2.645-2.734,6.616-4.8,9.6 .146,2.227-.004,4.155-.96,5.28-8.352-.128-10.952-6.008-18.24-7.2-2.292-2.188-5.277-3.682-8.64-4.8-.086-1.354-2.281-.599-1.92-2.4-5.397-1.867-9.786-5.945-13.92-9.6-2.964-2.62-6.063-5.269-9.12-8.16-5.011-4.74-8.727-12.818-12.48-19.68-2.688-4.914-5.111-9.947-7.68-14.88 1.993-7.258 6.305-13.401 4.32-21.6-.58-2.396-2.638-3.616-3.84-5.76-1.975-3.522-2.713-7.815-5.28-10.08 .527-2.353 1.147-4.612 1.92-6.72-.274-.81-2.569,1.909-1.92-1.44-2.332-.251-1.563,2.597-2.4,3.84-2.049-.191-1.04-3.441-3.84-2.88-.18,2.747 2.727,6.548 2.88,10.56 3.421,6.317 7.195,11.318 6.24,21.12-.834,8.564-6.361,17.317-7.2,26.4-.289,3.127-.257,7.282 0,10.08 .246,2.675 1.759,5.267 1.44,7.681-.261,1.973-2.154,4.115-2.4,6.239-8.35.988-13.796,1.959-21.6,2.4-2.75-6.051-2.174-15.426-5.76-20.64-1.868-2.612-6.087-2.873-7.68-5.761 2.351-4.688 3.411-10.669 6.24-14.88 2.797.237 4.982-.138 6.72-.96 1.538-8.255 3.178-17.742.48-25.44-.454-1.294-1.63-2.05-1.92-3.36-1.385-6.248-.011-13.638-.96-21.12-.354-2.784-1.48-5.053-1.44-7.68 .04-2.843 1.45-6.262.48-9.117zm28.32,12c-.458,3.839-2.743,9.024 0,10.56 1.591-5.226 1.077-7.844 1.44-13.92-.614-.026-.665-.615-1.44-.48-.13,1.198.17,2.409 0,3.843zm1.44,11.037c2.027-.373 2.559-2.241 2.88-4.32-2.03.375-2.56,2.243-2.88,4.32zm1.92.96c1.222-.059 1.861-.699 1.92-1.92-1.12.17-2.25.31-1.92,1.92zm34.08,66.24c2.792.231 3.349-1.771 4.32-3.36-1.83-.97-3.76,1.53-4.32,3.36zm-15.36,5.76c5.373.072 6.617-1.284 10.561-2.88 .025-.826-.37-1.23-.96-1.44-1.94,2.7-8.96.32-9.6,4.32z" fill="#fff"/> <path d="m137.76,86.763c.775-.135.826.454 1.44.48-.363,6.076.151,8.694-1.44,13.92-2.743-1.536-.458-6.721 0-10.56 .17-1.431-.13-2.642 0-3.837z"/> <path d="m106.08,89.643c3.146,6.376 1.966,14.466 3.36,22.08-1.491-.051-3.108-1.975-4.32-3.36-2.489-2.846-5.316-5.552-8.16-8.64-1.135-1.232-3.604-2.923-2.4-4.8 2.746.614 3.422,3.297 5.76,4.32 3.47-1.651 4.57-5.669 5.76-9.597z" fill="#fff"/> <path d="m86.88,101.16c-2.001-2.73-2.836-5.429-2.88-9.12 3.449-.467 6.463-2.37 8.64.48-.707,4.095.037,9.64-5.76,8.64z" fill="#fff"/> <path d="m66.24,94.443c1.974,1.226 1.693,4.707 3.84,5.76-.21,2.93 1.953,3.488 2.88,5.28-.489,3.534-.681,4.415-1.44,7.68-2.68-.679-1.156-5.563-3.36-6.72 .146-4.62-2.463-8.523-1.92-11.997z" fill="#fff"/> <path d="m40.32,106.92c-3.367-2.074-4.183-6.698-7.68-8.64 .209-.59.614-.986 1.44-.96 2.133,3.15 5.572,4.99 6.24,9.6z"/> <path d="m142.08,97.323c-.321,2.08-.853,3.947-2.88,4.32 .32-2.077.85-3.945 2.88-4.317z"/> <path d="m93.6,100.2c8.003,5.757 14.142,13.378 18.24,23.04-.755,7.815 1.776,16.248-1.44,21.12-8.882-.878-9.967-9.554-16.32-12.96-.008-2.568-.192-5.312.96-6.72-1.191-1.206-.672-3.489-.96-6.24-.59-5.632-3.157-10.183-4.8-14.88 2.049.188 3.143,3.043 4.32,4.8 .799,1.194.8,1.281 1.44,2.88 .17.424.858.239.96.48 .226.533-.257,1.405 0,1.92 .088.175.914.347.96.48 1.339,3.864.313,8.638 2.4,12.48 1.223-2.155.614-6.041 0-9.6-1.028-5.949-4.988-11.033-7.2-15.36 .692-.27 1.172-.75 1.44-1.44z" fill="#fff"/> <path d="m143.04,100.68c-.059,1.221-.698,1.861-1.92,1.92-.33-1.61.8-1.75 1.92-1.92z"/> <path d="m91.2,117.96c1.373.067.878,2.002.96,3.36-2.175.23-1.309-2.24-.96-3.36z" fill="#fff"/> <path d="m91.2,122.76c2.225-.304 1.215,2.625 1.44,4.32-1.064-.85-1.742-2.1-1.44-4.32z" fill="#fff"/> <path d="m93.6,134.76c2.441,4.919 6.291,8.429 9.6,12.48-1.566,4.193-3.385,8.136-4.32,12.96-7.12-2.959-13.053-7.107-16.32-13.92 3.82-2.579 8.876-3.924 12-7.2 .15-1.87-2.727-2.31-.96-4.32z" fill="#fff"/> <path d="m141.6,157.8h1.44c1.195,5.19 5.345,8.673 8.16,12.96 2.368,3.605 4.822,7.453 7.68,11.04-5.038,2.322-13.356,1.364-18.72,3.359 .413-2.146 2.401-2.719 2.88-4.8-2.08-5.62-2.57-15.31-1.44-22.56z" fill="#fff"/> <path d="m179.52,165.48c-.972,1.589-1.528,3.592-4.32,3.36 .56-1.83 2.49-4.33 4.32-3.36z"/> <path d="m169.44,170.28c.59.21.985.614.96,1.44-3.943,1.596-5.188,2.952-10.561,2.88 .64-4 7.66-1.62 9.6-4.32z"/> <path d="m43.68,178.92c-.389.091-.479.481-.96.479-2.497-1.184-4.283-3.077-6.24-4.8-1.785-.455-3.716-.764-3.84-2.88 4.075.14 8.214,4.23 11.04,7.2z"/> <path d="m52.32,171.24c3.25,2.51 3.308,8.212 4.32,12.96-.385,1.607-3.52-1.762-4.8-2.399-.591-2.47.907-6.68.48-10.56z" fill="#fff"/> <path d="m105.12,177.96c-.484,5.292-7.974,6.26-9.12,1.44-.475-2 .764-5.456 2.4-5.76 2.24-.41 4.58,2.45 6.72,4.32zm-6.72,2.4c2.252.7 4.634.238 4.8-2.4-1.537-.383-2.422-1.417-4.32-1.439-.742.7-.422,2.46-.48,3.84z"/> <path d="m98.88,176.52c1.898.022 2.783,1.057 4.32,1.439-.166,2.639-2.548,3.101-4.8,2.4 .058-1.38-.262-3.14.48-3.84z" fill="#fff"/> <path d="m43.68,178.92c.386-.255.779-.501 1.44-.48 .616.631.616,1.77 0,2.4-1.265.15-1.575-.66-1.44-1.92z"/> <path d="m176.16,198.6c-14.87,1.977-30.765,3.117-46.08,5.76-2.977.514-5.384.146-8.16.48-3.172.382-6.083,2.372-9.12,1.439-3.298-1.012-5.112-8.732-9.6-9.12-2.828-.244-4.037,1.718-6.24,3.36-.169,2.89 1.862,3.578 2.4,5.76-5.051.251-9.62.02-12.96-1.439-2.199-4.521-9.254-4.186-11.04-9.12 27.467-1.778 55.468-6.9 85.439-9.12 .353-.448.873-.728 1.44-.96 .389.091.479.481.96.479 4.59,3.9 8.63,8.33 12.96,12.48z" fill="#fff"/> <path d="m274.08,197.64c-2.236,6.995-10.833,4.482-17.28,6.72-5.641,1.958-12.56,6.354-18.239,9.601-2.811,1.605-5.434,4.133-9.12,4.319-.417-7.021 2.119-14.021 8.16-14.88 1.641,1.905-1.919,4.058 0,6.24 2.132-.268 1.902-2.897 2.88-4.32 3.111-2.304 4.354-5.021 8.16-5.76 1.818-.353 4.006.375 6.239,0 2.453-.412 4.381-2.248 6.721-2.4 3.44-.22 8,1.99 12.48.48z" fill="#fff"/> <path d="m234.72,200.52c-1.41,3.057-5.149,4.239-6.721,7.2-1.75,3.298-.622,7.847-1.439,12-3.108-1.052-5.319-3.001-7.2-5.28 1.604-6.715 3.801-12.839 8.64-16.32 2.52.52 4.52,1.56 6.72,2.4z" fill="#fff"/> <path d="m185.76,205.32c-5.15-.06-9.726.366-12.479-3.84 2.709.148 4.269-.852 7.2-.48 1.02,2.19 5.19,1.21 5.28,4.32z" fill="#fff"/> <path d="m101.28,201.48c.963-.163 1.502.098 1.44.96h-1.44v-.96z" fill="#fff"/> <path d="m296.16,201.48c2.193.572-.466,3.797-1.92,3.84-.08-1.99 2.15-1.69 1.92-3.84z" fill="#fff"/> <path d="m175.68,205.8c-5.169,1.404-10.405,2.151-12-2.88 5.55-1.87 8.75-.36 12,2.88z" fill="#fff"/> <path d="m247.68,222.12c-.287-2.112-1.598-3.203-1.44-5.76 2.095-.542 4.344.053 6.24.96 1.391-.961-1.384-1.778-.96-3.359 1.003-1.237 2.721-1.759 5.279-1.44 1.141-.3-.074-2.954.96-3.36 3.09-1.623 6.566.746 9.601,1.92 6.449-2.83 11.449-7.11 18.72-9.12-.394,3.446-3.445,4.234-3.84,7.681-2.993,2.767-5.893,5.627-7.68,9.6-9.015,8.105-15.675,18.566-23.521,27.84-7.385-4.295-14.537-8.822-21.6-13.439 .063-2.017 2.728-1.433 3.84-2.4 2.469-2.011 5.614-3.346 8.64-4.8v-3.84c1.28-1.56 3.98-1.76 5.76-.48zm22.56-2.88c1.045-1.835 2.967-2.793 3.84-4.8-.617-1.303-1.115-2.725-3.359-2.4-.695,1.815 1.318.922.96,2.4-4.81.01-6.226-3.374-11.521-2.88 2.7,3.22 5.4,6.44 10.08,7.68zm-1.92,1.92c-4.694-1.548-8.025-7.011-13.92-5.76 3.07,3.28 10.04,13.58 13.92,5.76zm-19.2-1.92c.55,5.37 5.771,6.069 9.601,8.16 .196-.604.618-.981 1.439-.96-.86-4.94-7.69-6.34-11.04-7.2zm4.8,8.16c-3.812-.827-5.5-3.779-10.08-3.84 .23,4.69 7.7,8.36 10.08,3.84zm3.36,4.8c1.4.706 1.4-2.146 0-1.439v1.44zm-19.2,1.92c2.717,1.908 4.604,2.553 9.12,1.92 .04-4.2-7.66-6.14-9.12-1.92zm17.76,0c-2.637-.254-6.409-1.037-8.64-.96 1.62,1.93 6.52,3.49 8.64.96zm-10.08,4.32c2.144,1.352 4.995,4.514 6.24.48-.57-1.98-5.03-1.84-6.24-.48z"/> <path d="m107.04,205.32c-.141.979-1.299.941-1.44,1.92-1.714-.526-2.834-1.646-3.36-3.359 2.14-1.65 3.76-.36 4.8,1.44z" fill="#fff"/> <path d="m165.12,206.76c-2.157.617-5.343,1.925-7.68,1.439-2.096-.435-2.544-2.517-4.32-2.88 2.99-3.79 10.01-1.33 12,1.44z" fill="#fff"/> <path d="m154.08,207.72c-3.673,2.158-8.722,1.432-10.08-2.4 4.05-1.71 8.21.36 10.08,2.4z" fill="#fff"/> <path d="m144.96,209.64c-5.161,1.12-8.913.762-11.52-2.4 3.76-2.35 10.3-1.69 11.52,2.4z" fill="#fff"/> <path d="m86.4,208.68c-3.821,3.219-6.539,7.541-7.2,13.92-1.323-1.85-3.968-1.641-5.76-1.92 .629-6.029 3.038-11.762 8.16-13.92 1.697-.71 2.888,1.47 4.8,1.92z" fill="#fff"/> <path d="m134.88,209.64c-1.75,2.892-6.603.955-8.64-.96-1.509.669.66,2.369-.48,2.88h-3.84c-.125-1.795-1.979-1.86-3.36-2.4 1.756-1.84 4.684-.82 6.24.48 2.13-4.36 7.34-2.11 10.08,0z" fill="#fff"/> <path d="m192,210.12c-3.63.61-8.54.748-11.04-1.92 2.42-2.42 10.9-2.26 11.04,1.92z" fill="#fff"/> <path d="m293.76,206.76c-.314,1.285-1.374,1.825-1.92,2.88-1.96-.61.57-2.66 1.92-2.88z" fill="#fff"/> <path d="m108.96,207.72c-.438.841-.892,1.667-2.4,1.439-.07-1.35 1.18-1.38 2.4-1.44z" fill="#fff"/> <path d="m181.92,210.6c-1.607,1.752-5.932.788-8.64,1.439-.791-1.288-2.316-1.844-2.88-3.359 4.14-.95 8.1-1.31 11.52,1.92z" fill="#fff"/> <path d="m170.88 211.56c-3.153 2.664-9.706 1.34-11.52-1.44 4.91-1.15 8.67-1.78 11.52 1.44z" fill="#fff"/> <path d="m109.92,210.12c.225,1.495-1.207,1.716-1.92.96 .12-.84.83-1.09 1.92-.96z" fill="#fff"/> <path d="m160.32,213.48c-4.435,1.068-8.383,1.226-9.6-2.88 4.2-.67 8.2-.41 9.6,2.88z" fill="#fff"/> <path d="m289.44,210.6c.816-.177.905.374.96.96-.408-.088-.453.188-.48.479-.56-.08-.4-.87-.48-1.44z" fill="#fff"/> <path d="m151.2,214.44c-5.296.578-8.976,2.228-10.56-2.88 5.59-.28 8.23-1.09 10.56,2.88z" fill="#fff"/> <path d="m199.2,215.4c-2.965-.33-6.019.46-6.72.96-1.947-1.093-3.837-2.243-5.28-3.84 5.7-.79 9.75-1.44 12,2.88z" fill="#fff"/> <path d="m260.16,211.56c5.295-.494 6.711,2.89 11.521,2.88 .358-1.479-1.655-.585-.96-2.4 2.244-.324 2.742,1.098 3.359,2.4-.873,2.007-2.795,2.965-3.84,4.8-4.68-1.24-7.38-4.46-10.08-7.68z" fill="#fff"/> <path d="m141.12,214.92c-3.098,2.525-8.038.497-9.6-2.4 5.06-.77 6.92.11 9.6,2.4z" fill="#fff"/> <path d="m109.44,212.52c1.038,1.082 1.637-.397 3.36,0 3.205,4.476 6.532,8.828 10.08,12.96-6.6-.28-9.89-8.02-13.44-12.96z" fill="#fff"/> <path d="m200.16,212.52c2.356-.437 1.828,2.012 3.84,1.92-.78,1.99-3.66-.32-3.84-1.92z" fill="#fff"/> <path d="m289.44,212.52c-.21.591-.614.985-1.44.96-.22-1.02.69-.91 1.44-.96z" fill="#fff"/> <path d="m132,216.36c-3.246,1.643-6.373.391-8.16-1.92 2.03-2.77 7.51-1.42 8.16,1.92z" fill="#fff"/> <path d="m184.32,213c1.303.938 2.184,2.297 3.84,2.881-3.493,2.812-9.633,1.43-12-2.4 3.24-.35 4.44-.25 8.16-.48z" fill="#fff"/> <path d="m177.6,218.28c-5.746.252-8.535.001-11.521-2.88 3.4-2.88 10.64-1.07 11.52,2.88z" fill="#fff"/> <path d="m286.56,214.44c1.817.698-.779,3.571-2.4,3.84 .19-1.88 2.11-2.05 2.4-3.84z" fill="#fff"/> <path d="m168,218.76c-4.366,1.64-9.476-.12-11.52-2.4 3.42-2.44 8.74-.59 11.52,2.4z" fill="#fff"/> <path d="m254.4 215.4c5.895-1.251 9.226 4.212 13.92 5.76-3.88 7.82-10.85-2.48-13.92-5.76z" fill="#fff"/> <path d="m157.92,220.2c-4.019.563-9.473-.042-11.52-2.88 4.16-2.06 10.18-1.5 11.52,2.88z" fill="#fff"/> <path d="m205.44,217.32c3.104-1.333 6.683.99 8.16,2.88-4.17.49-6.39-.97-8.16-2.88z" fill="#fff"/> <path d="m147.84,220.68c-4.318,1.879-7.207-.111-9.6-2.4 3.56-2.45 7.81.18 9.6,2.4z" fill="#fff"/> <path d="m205.92,219.72c-2.239,2.075-10.79,2.66-10.56-1.92 4.58-.48 8.21-.72 10.56,1.92z" fill="#fff"/> <path d="m138.72,222.12c-5.4.807-6.891-.407-9.6-2.88 3.17-2.59 9.07-1.18 9.6,2.88z" fill="#fff"/> <path d="m194.88 221.64c-4.714 1.068-8.231 1.28-11.04-1.44 2.88-2.62 10.01-2.38 11.04 1.44z" fill="#fff"/> <path d="m175.2,218.76c2.151,1.868 6.685.446 8.64,3.359-.325,1.012-5.257,1.679-6.72,1.44-1.743-.284-3.202-1.519-3.84-2.4-.36-1.8 2.55-.33 1.92-2.4z" fill="#fff"/> <path d="m260.16,226.44c-.821-.021-1.243.356-1.439.96-3.829-2.091-9.051-2.79-9.601-8.16 3.35.86 10.18,2.26 11.04,7.2z" fill="#fff"/> <path d="m127.2,220.2c.84,1.08 2.734,1.105 2.88,2.88h-2.88v-2.88z" fill="#fff"/> <path d="m173.76,224.52c-2.882-.533-8.376.855-9.6-3.36 2.99-.66 8.03-.55 9.6,3.36z" fill="#fff"/> <path d="m221.28,224.52c-2.288-.048-2.628,1.853-4.8,1.92-1.753-1.128-4.068-1.691-4.32-4.32 2.27-.75 8.29-1.77 9.12,2.4z" fill="#fff"/> <path d="m164.16,225.48c-3.757-.234-9.042.694-10.56-2.88 3.78-1.51 9.88-1.33 10.56,2.88z" fill="#fff"/> <path d="m154.08,225.96c-2.998,1.113-6.84.104-9.12-1.921 2.67-2.53 8.16-1.26 9.12,1.92z" fill="#fff"/> <path d="m213.6,226.44c-4.904,1.742-10.259.956-12.48-3.36 2.636.752 5.02-.852 8.64-.479 .94,1.62 2.97,2.15 3.84,3.84z" fill="#fff"/> <path d="m281.28,222.6c.227,1.507-1.292,1.268-1.44,2.399-1.05-.47.43-2.4 1.44-2.4z" fill="#fff"/> <path d="m145.92,226.92c-2.62,1.035-7.861.557-9.6-1.921 2.6-3.53 8.15-.18 9.6,1.92z" fill="#fff"/> <path d="m243.84,223.56c4.58.061 6.268,3.013 10.08,3.84-2.38,4.52-9.85.85-10.08-3.84z" fill="#fff"/> <path d="m203.04,227.88c-3.67,1.592-10.703-.052-12.96-2.881 4.54-2.46 11.15-.39 12.96,2.88z" fill="#fff"/> <path d="m136.8,227.88c-3.048.789-7.823,1.499-8.64-2.881 3.68-1.64 7.43.49 8.64,2.88z" fill="#fff"/> <path d="m191.52,229.32c-5.962.774-9.941.197-12-3.84 5.47-.73 10.75-.77 12,3.84z" fill="#fff"/> <path d="m279.36,225.48c-.21.591-.614.985-1.44.96 .21-.59.61-.98 1.44-.96z" fill="#fff"/> <path d="m180.96,229.8c-1.049,1.03-3.935.226-4.8,1.439-1.923-1.598-4.627-2.412-5.76-4.8 4.9-1.08 8.81.06 10.56,3.36z" fill="#fff"/> <path d="m78.72,227.88c-.495.618-5.048,1.234-4.8-.48 1.173-.93 4.143-.59 4.8.48z" fill="#fff"/> <path d="m171.84,231.24c-5.558,1.922-8.679-.232-12-2.88 4.06-2.78 10.6-1 12,2.88z" fill="#fff"/> <path d="m161.76,231.72c-3.951,2.981-7.569-.937-10.08-2.4 3.48-3.07 7.86.14 10.08,2.4z" fill="#fff"/> <path d="m276.48,227.88c1.281.702-.201,2.634-1.44,2.399-.23-1.5 1.29-1.26 1.44-2.4z" fill="#fff"/> <path d="m153.12,233.64c-4.533.602-7.964-1.247-11.04-3.36 3.81-3.05 9.91-.46 11.04,3.36z" fill="#fff"/> <path d="m211.68,229.32c.493,1.613-1.492.747-2.399.96-.49-1.61 1.49-.74 2.4-.96z" fill="#fff"/> <path d="m78.24,229.8c5.269-.949 6.978,1.662 9.6,3.359-.888,1.499-4.045,1.497-5.76.96-1.682-.52-3.869-2.66-3.84-4.32z" fill="#fff"/> <path d="m143.52,234.6c-4.363.277-7.863-.842-10.56-3.36 2.64-2.6 9.92-1.24 10.56,3.36z" fill="#fff"/> <path d="m208.32,232.68c-3.312,2.057-8.84,1.697-10.08-1.92 3.75-.69 8.93-1.85 10.08,1.92z" fill="#fff"/> <path d="m257.28,230.76c1.4-.706 1.4,2.146 0,1.439v-1.44z" fill="#fff"/> <path d="m198.24,234.12c-4.135,1.709-9.021,1.68-10.561-2.399 4.58.09 9.21-1.56 10.56,2.4z" fill="#fff"/> <path d="m247.2,236.04c-4.516.633-6.403-.012-9.12-1.92 1.46-4.22 9.16-2.28 9.12,1.92z" fill="#fff"/> <path d="m273.6,231.72c1.28.702-.201,2.634-1.44,2.399-.23-1.5 1.29-1.26 1.44-2.4z" fill="#fff"/> <path d="m187.68,235.56c-4.007.968-7.645.396-9.119-2.4 2.99-1.12 8.44-1.27 9.12,2.4z" fill="#fff"/> <path d="m247.2,233.16c2.23-.077 6.003.706 8.64.96-2.12,2.53-7.02.97-8.64-.96z" fill="#fff"/> <path d="m178.56,236.52c-3.814.576-9.268,1.304-10.08-2.4 3.92-.68 9.04-1.07 10.08,2.4z" fill="#fff"/> <path d="m160.32,234.6c3.821-.302 6.915.125 7.68,2.88-2.82,1.09-7.87.6-7.68-2.88z" fill="#fff"/> <path d="m84.48,235.56c4.886-.406 8.849.111 9.6,3.84-4.576,1.1-7.394-.42-9.6-3.84z" fill="#fff"/> <path d="m150.72,235.56c4.195-.355 7.678.002 9.12,2.4-3.53,1.89-7.94,1.44-9.12-2.4z" fill="#fff"/> <path d="m204.96,235.56c5.199-.559 7.243,2.037 10.08,3.84-.34,1.663-3.146.586-5.76.96-.56-2.48-4.09-1.98-4.32-4.8z" fill="#fff"/> <path d="m270.24,235.56c2.022-.163.685,2.755-.96,1.92-.59-1.55 1.55-.36.96-1.92z" fill="#fff"/> <path d="m128.64,236.04h2.4c1.791,2.529 4.728,3.912 4.8,8.16-4.15-.96-5.84-4.39-7.2-8.16z" fill="#fff"/> <path d="m141.12,236.52c4.366-.366 7.897.103 9.6,2.4-2.45,1.97-7.98,1.94-9.6-2.4z" fill="#fff"/> <path d="m206.88,241.32c-6.161,1.215-10.33-.352-12.479-4.32 5.64-1.5 11.16.05 12.48,4.32z" fill="#fff"/> <path d="m135.84,237.96c2.006-1.505 4.591.512 4.8,2.399-2.36,1.26-3.29-1.4-4.8-2.4z" fill="#fff"/> <path d="m185.28,237.48c4.772-.616 8.721,1.188 11.04,4.32-4.63,2.62-9.41-.08-11.04-4.32z" fill="#fff"/> <path d="m252,238.92c-1.245,4.033-4.097.871-6.24-.48 1.21-1.36 5.67-1.5 6.24.48z" fill="#fff"/> <path d="m127.68,241.8c-2.237,1.735-4.075-1.029-5.28-1.92 1.19-3.22 4.25.62 5.28,1.92z" fill="#fff"/> <path d="m187.2,242.76c-4.963,3.48-9.643-.565-12.96-2.88 4.6-3.56 10.39.12 12.96,2.88z" fill="#fff"/> <path d="m176.64,243.72c-3.51,3.167-9.174-.072-10.08-3.84 5.48-1.65 6.72,2.15 10.08,3.84z" fill="#fff"/> <path d="m113.76,242.28c-1.99.551-1.871-1.01-3.36-.96 .37-1.77 3.26-.42 3.36.96z" fill="#fff"/> <path d="m101.76,244.2c-2.765,3.831-8.091-.38-10.08-1.92 3.486-2.51 8.088-.66 10.08,1.92z" fill="#fff"/> <path d="m157.44,240.84c5.954-.993 7.86,2.061 11.041,3.84-.73,1.51-3.499.981-5.28,1.439-1.48-2.2-5.35-2.01-5.76-5.28z" fill="#fff"/> <path d="m122.88,242.76c-.357,1.082-2.692.188-3.84.479-.07-2.54 3.02-1.15 3.84-.48z" fill="#fff"/> <path d="m148.32,241.8c5.837-.718 9.063,1.177 10.56,4.8-2.273-.193-3.303.856-5.76.479-1.25-2.1-4.45-2.26-4.8-5.28z" fill="#fff"/> <path d="m223.68,246.12c-5.859,1.027-7.725-.613-11.039-2.88 3.24-2.81 10.05-.83 11.04,2.88z" fill="#fff"/> <path d="m139.68 242.76c5.754-1.115 7.116 2.163 10.08 3.84-2.041 2.341-5.851 1.187-8.64 1.92-1.19-1.21-1.13-3.66-1.44-5.76z" fill="#fff"/> <path d="m214.08,247.08c-3.229.475-4.243.214-7.68.48-.432-1.969-2.584-2.216-3.84-3.36 4.5-1.7 9.35-1.63 11.52,2.88z" fill="#fff"/> <path d="m273.6,246.6c-2.774-.214-4.919.201-7.2.479 .93-3.33 6.02-4.63 7.2-.48z" fill="#fff"/> <path d="m199.68,244.2c1.388,1.174 2.683,2.438 4.32,3.36-2.693,2.205-8.934.567-10.56-2.4 2.24-1.22 3.58-.42 6.24-.96z" fill="#fff"/> <path d="m130.08,249.48c-5.565,1.292-10.108-.148-12-3.84 5.58-.96 10-.81 12,3.84z" fill="#fff"/> <path d="m128.64 244.68c2.63 1.37 5.987 2.013 8.16 3.84-3.39 1.31-6.64-1.67-8.16-3.84z" fill="#fff"/> <path d="m194.88,248.52c-3.281,2.138-11.403,1.298-11.52-2.88 5.27-1.08 8.58.48 11.52,2.88z" fill="#fff"/> <path d="m174.24,246.6c5.026-.546 8.357.603 9.6,3.84-4.94.46-8.27-.68-9.6-3.84z" fill="#fff"/> <path d="m111.84,251.4c-5.936,1.229-9.757.918-12.48-3.84 5.72-.88 10.64-.31 12.48,3.84z" fill="#fff"/> <path d="m119.52,250.44c-3.052,1.686-6.026.229-7.68-2.88 3.78-.91 6.46.07 7.68,2.88z" fill="#fff"/> <path d="m165.6,247.56c5.025-.546 8.357.603 9.6,3.84-4.88.89-8.01-.34-9.6-3.84z" fill="#fff"/> <path d="m231.36,251.4c-4.985,1.006-8.15,1.325-11.04-2.399 1.098-1.434 4.455-1.771 6.24-1.44 2.37.44 3.96,2.62 4.8,3.84z" fill="#fff"/> <path d="m166.56,252.36c-5.053,1.558-7.49-.275-10.561-2.88 3.48-2.64 9.58-.12 10.56,2.88z" fill="#fff"/> <path d="m220.8,251.88c-2.961,3.538-9.986.566-11.04-2.4 5.18-1.28 8.28-.6 11.04,2.4z" fill="#fff"/> <path d="m156.48,253.32c-5.517,1.757-10.207.543-12.96-2.88 4.93-1.4 11.54-2.31 12.96,2.88z" fill="#fff"/> <path d="m268.32,252.36c-2.945-.826-4.345,1.78-6.24.48 .66-3.66 5.21-4.15 6.24-.48z" fill="#fff"/> <path d="m210.72,254.28c-5.237.598-8.198-1.081-10.079-3.84 4.31-.56 8.95-.84 10.08,3.84z" fill="#fff"/> <path d="m136.32,250.44c5.292-1.133 5.917,2.403 9.12,3.36-2.99,3.58-7.81-.76-9.12-3.36z" fill="#fff"/> <path d="m137.76,254.76c-3.866,2.723-11.314.863-11.04-2.88 5.46-.63 8.71-.37 11.04,2.88z" fill="#fff"/> <path d="m201.6,255.24c-5.478.678-9.005-.595-11.521-2.88 2.13-1.83 11.42-1.71 11.52,2.88z" fill="#fff"/> <path d="m191.52,256.68c-4.271-.209-7.783-1.178-10.08-3.36 3.46-2.61 9.28.17 10.08,3.36z" fill="#fff"/> <path d="m118.56,253.32c3.674-1.904 6.76.913 8.64,2.4-2.91,3.25-6.53-.64-8.64-2.4z" fill="#fff"/> <path d="m182.88,256.68c-2.454,2.118-8.182.54-9.6-2.4 3.2-3.43 6.92.28 9.6,2.4z" fill="#fff"/> <path d="m120,257.64c-5.901,1.173-9.811.55-12.48-3.36 5.72-1.52 10.27-.56 12.48,3.36z" fill="#fff"/> <path d="m237.12,256.2c-4.38-.248-7.999,1.385-10.08-1.439 2.47-1.75 9.58-2.46 10.08,1.44z" fill="#fff"/> <path d="m173.76,257.64c-3.417,2.125-8.146.221-10.56-2.4 4.16-2.69 8.25-.28 10.56,2.4z" fill="#fff"/> <path d="m272.64,255.72c-4.497.353-10.748,1.346-13.92,1.439 .249-1.19 1.17-1.71 1.92-2.399 3.92,1.56 10.38-2.83 12,.96z" fill="#fff"/> <path d="m226.08,257.64c-4.418.053-7.066.773-9.6-1.44 2.12-2.84 10.79-2.18 9.6,1.44z" fill="#fff"/> <path d="m255.84,254.76c.855.352.069.873 0,1.439-.86-.35-.07-.87 0-1.44z" fill="#fff"/> <path d="m163.68 258.12c-1.777 3.133-11.739 1.578-11.52-1.92 2.87-1.04 9.58-1.54 11.52 1.92z" fill="#fff"/> <path d="m216.48,257.64c-1.974,2.4-9.012,1.281-8.16-1.44 2.29-.87 6.26-.5 8.16,1.44z" fill="#fff"/> <path d="m152.16,260.52c-4.626.626-6.474-1.525-8.64-3.36 3.81-1.86 7.39.14 8.64,3.36z" fill="#fff"/> <path d="m207.36,258.6c-2.414,2.201-8.866,2.63-9.601-.96 3.9-.52 6.37-1.56 9.6.96z" fill="#fff"/> <path d="m246.24,258.6c-.594,1.947-3.827.598-3.84-.96 1.2-1.05 2.36.84 3.84.96z" fill="#fff"/> <path d="m133.44,257.64c3.485.101 10.758-.902 11.04,3.84-1.35-.35-5.379.235-8.16,0 .06-2.3-3.36-1.12-2.88-3.84z" fill="#fff"/> <path d="m196.8,261.48c-2.652-.547-6.575.239-7.68-2.88 3.29-.76 7.73-1 7.68,2.88z" fill="#fff"/> <path d="m241.44,258.6c-1.38,1.391-8.149,2.692-9.12,0 3.52.5 6.33-1.23 9.12,0z" fill="#fff"/> <path d="m126.24,258.6c4.162-.481 6.49.87 7.68,3.36-3.36,1.48-7.28-.31-7.68-3.36z" fill="#fff"/> <path d="m188.64,261.48c-2.298,1.275-7.003.66-8.641-1.44 1.32-1.5 7.71-1.42 8.64,1.44z" fill="#fff"/> <path d="m230.88,260.52c-3.319.558-5.599,1.414-8.64.48 .93-2.04 7.91-2.61 8.64-.48z" fill="#fff"/> <path d="m126.72,263.4c-4.025.095-9.52.309-11.52-2.88 3.38-2.23 11.24-1.14 11.52,2.88z" fill="#fff"/> <path d="m179.04,262.44c-2.007,1.401-7.617.58-8.64-1.92 2.52-.79 8.56-1.29 8.64,1.92z" fill="#fff"/> <path d="m213.6,260.52c2.339.221 5.622-.503 7.199.48-1.7,1.56-6.5,2.62-7.2-.48z" fill="#fff"/> <path d="m169.92,262.92c-.086,1.354-2.281.599-1.92,2.399 .994,1.566 6.133-1.013 5.76,1.92-4.027-.727-6.319,1.955-9.6.48-.373-2.293 3-.841 3.36-2.4 .111-2.575-2.945-.205-5.28-.96-1.574-.666-3.232-1.248-3.84-2.88 4.25-.08 9.37-1.52 11.52,1.44z" fill="#fff"/> <path d="m211.2,262.92c-2.409.554-5.175.78-7.68,0 .8-1.41 7.3-2.7 7.68,0z" fill="#fff"/> <path d="m157.92,264.84c-2.609,1.475-6.254-.135-6.72-2.4 2.72-.83 5.33-.2 6.72,2.4z" fill="#fff"/> <path d="m201.6,264.36c-2.259-.876-4.212.776-6.24-.479 .93-1.89 6.02-2.06 6.24.48z" fill="#fff"/> <path d="m150.72,266.28c-4.122-.038-8.973.652-10.56-1.92 2.76-2.35 9.95-1.94 10.56,1.92z" fill="#fff"/> <path d="m193.92,264.84c-1.457.797-6.223.797-7.68,0 .272-2.127 4.616-.184 5.76-1.44 .47.65 1.28.96 1.92,1.44z" fill="#fff"/> <path d="m139.68,267.24c-3.739.38-6.083-.637-7.2-2.88 3.2-.77 6.41-.04 7.2,2.88z" fill="#fff"/> <path d="m132.48 267.72c-3.543 1.361-7.501 1.036-10.08-1.44 2.59-2.08 9.13-1.94 10.08 1.44z" fill="#fff"/> <path d="m184.32,265.8c-1.457.797-6.223.797-7.68,0 .77-1.85 6.78-1.16 7.68,0z" fill="#fff"/> <path d="m156.48,266.76c1.977.493 4.069-.547 5.76.96-.86,1.07-5.71,1.97-5.76-.96z" fill="#fff"/> <path d="m154.56,268.68c-1.632,1.209-6.458,1.375-8.64.479 1.72-1.85 6.47-1.96 8.64-.48z" fill="#fff"/> <path d="m143.52,269.64c-.988,1.21-4.377,1.378-5.28,0 .6-1.05 4.04-1.32 5.28,0z" fill="#fff"/> <path d="m136.32,271.56c-2.006-.933-5.448.959-7.68-.48 1.13-1.44 7.62-2.71 7.68.48z" fill="#fff"/> <path d="m99.36,80.043c-.034,3.012-3.178,7.058-6.24,8.64 1.252,3.869 4.767,5.474 7.2,8.16 1.166-1.41 4.547-6.147 5.76-10.56 .223-.809-.246-2.199 0-3.36 .342-1.612 1.504-4.435-.48-6.24-.688-.626-2.05.021-2.4-.96-3.529,1.359-5.016,5.994-8.64,7.68-7.854,3.654-15.574-1.66-19.68-6.72-1.793.978-2.474-1.058-3.84-1.44-2.652-.741-5.608.012-8.16-.48-2.096-.404-3.671-2.556-5.76-1.44-.637-.803-1.271-1.608-.96-3.36-1.604-.003-1.272,1.928-2.4,2.4-2.842-1.638-4.426-4.534-5.76-7.68 1.756-6.479-.037-14.229.96-23.04 .293-2.588 1.477-5.375 1.92-8.16 .979-6.142 1.511-12.482 3.36-16.32 2.144-4.449 8.525-10.589 13.44-12.96 3.489-1.683 5.686-2.874 9.12,0 4.876-3.979 11.317-4.795 16.32-3.84 6.95,1.327 19.056,7.765 23.04,14.88 .405.724.462,2.237.96,3.36 2.285,5.153 5.252,9.349 6.24,16.8 .479,3.617.753,7.517.96,10.56 .184,2.722.173,5.936 0,8.64-.106,1.662-.89,3.352-.96,4.8-.133,2.753-.528,5.608-.48,8.64-1.6,1.236-6.865,5.002-8.64,1.44-1.77,1.59-3.679,3.041-5.76,4.32 11.521,4.752 27.314,1.386 36.48,9.6 .863.773 4.368,4.91 5.28,6.24 .671.978.631,2.673 1.44,3.84 .688.993 1.86,1.51 2.4,2.4 1.359,2.239 2.922,5.345 3.36,6.72 1.05,3.296.178,6.92.96,10.56 .657,3.061 3.213,6.252 4.8,9.6 4.367,9.216 10.452,19.679 13.92,29.28 3.091.749 5.881,1.8 6.24,5.28 10.277,2.941 17.66,12.233 26.399,18.24 4.753-.863 9.276-.728 13.92-1.44 1.924-.295 4.741-.62 8.16-.96 5.943-.59 11.923-2.257 17.761-2.88 2.515-.269 5.169.305 7.68,0 1.68-.203 3.081-1.165 4.8-1.439 1.332-.213 2.566.535 3.84.479 .463-.021 1.21-.928 1.44-.96 6.305-.876 19.787-1.176 27.84-1.92-1.561,3.177-6.432,3.711-10.56,4.32-22.826,3.366-42.589,5.166-69.601,8.64 .397,2.486 3.251,4.145 5.28,5.76 6.007,4.781 13.826,9.622 21.12,13.44 3.409-3.12 8.752-4.757 14.399-4.32 1.624-.456 2.522-1.638 3.841-2.399 3.894,1.244 8.095.313 12,2.399 10.808-6.598 26.159-16.242 39.359-24 .516-.303 1.251-.127 1.92-.479 .481-.255.642-1.258.96-1.44 5.295-3.029 9.129-3.452 11.04,2.4-3.571,6.596-8.468,12.297-12.96,18.239-13.051,17.267-27.441,34.215-40.8,51.841 6.146,5.054 14.41,7.99 19.2,14.399-9.487,3.773-25.588,2.488-36.96,6.24-1.448-.632-4.112-.048-5.28-.96-19.201,3.459-44.573,6.027-64.32,8.16-9.231.997-18.883,1.362-28.8,2.88-3.685.563-9.031,1.45-13.44,1.92-3.582.382-9.549,1.057-12,.48-6.896-1.623-12.155-12.229-20.16-13.44-1.12-3.04-3.478-4.842-6.72-5.76-8.499-9.582-19.955-16.205-29.28-24.96-4.675-1.162-8.296-2.959-12.96-4.801-1.325-.522-3.11-.831-4.32-1.439-2.27-1.142-4.584-3.222-7.68-4.8-6.624-3.376-13.066-6.624-19.68-11.04-2.878-1.922-5.303-4.455-7.2-4.8-3.058-.557-7.701.943-11.52,1.439-3.38.439-8.135,1.815-10.08-1.92 5.694-2.239 10.518-2.401 17.76-2.88-.799-15.104-3.29-29.962-1.92-45.12 .592-6.55 2.315-11.641 3.36-19.2 .361-2.615 1.666-5.262 1.92-7.68 .625-5.93-.845-10.971 0-16.32 .213-1.349 1.4-2.742 1.92-4.32 .549-1.667.362-3.808.96-5.28 1.097-2.702 3.76-4.758 4.8-7.2 12.217-4.911 19.756-7.943 30.72-14.4 4.131-2.433 6.561-5.519 12.48-2.88 1.16,6.546 7.638,13.051 15.84,12 5.889-.752 7.277-6.183 11.52-9.117zm-37.44-66.72c1.094.134 1.805-.116 1.92-.96-1.094-.134-1.804.116-1.92.96zm-3.84,2.4c1.488,2.216.964,3.492 1.92,6.24 2.583.137 2.656,2.784 3.84,4.32 3.051.148 4.506,1.894 5.76,3.84 3.392.092 4.362,2.497 6.72,2.4v1.92c2.785.254 5.392.688 6.24,2.88-4.294,1.028-9.609-.901-14.4-.96-.021,4.035-4.25,8.058-.96,11.04-2.307,2.913.471,6.566.96,9.6 .237,1.517-2.382.178-1.92,1.92 .177,3.183 1.258,5.462 1.92,8.16 5.048,3.751 9.222,8.378 14.4,12 13.383,2.183 15.26-7.14 21.6-12 .917-3.083 1.087-6.913 2.4-9.6-1.541-2.395.775-5.856-.48-9.6 .814-.465 1.233-1.327.96-2.88-.357-1.403-2.591-.929-2.4-2.88 .687-1.553 1.928-2.552 2.4-4.32-3.702-1.84-8.339,2.372-11.04-.96 1.265-1.935 4.82-1.58 7.2-2.4-.78-3.835-3.246-.319-5.28,0-5.461.422-11.947,1.376-15.84-1.92 1.416-2.496 1.687-9.68-.48-11.52-1.857-.257-2.343.856-4.32.48-2.173,1.86-1.904,7.516-1.92,10.08-2.003-2.097-2.479-2.994-2.4-6.72-3.523-1.756-5.008-5.552-9.12-6.72-.033-4.416-3.439-4.797-5.76-2.4zm48.96,0c-.26,1.7 1.7,1.18 1.44,2.88-2.922,1.982-4.972,1.919-6.72,4.8-2.906-.506-3.691,1.109-5.76,1.44-1.7.26-1.18-1.7-2.88-1.44-1.412,2.376-8.177.384-7.68,3.84 4.377.337 9.948-.289 15.84-.48-.026-.826.369-1.23.96-1.44 6.701,1.101 8.787-2.413 12.96-3.84-.82-3.564-4.96-6.163-8.16-5.76zm-37.92,19.68c1.755-.005 2.572-.948 3.36-1.92-1.058-1.533-3.935-.854-3.36,1.92zm.96,43.2c-2.713.807-4.416,2.624-5.76,4.8 3.156,5.164 4.179,12.461 8.16,16.8-.891.849.208,1.401.48,2.4 3.5-3.221 5.973-7.467 9.12-11.04-5.203-3.114-9.927-6.71-12-12.957zm38.88,9.12c-.04,2.627 1.087,4.896 1.44,7.68 .949,7.482-.425,14.873.96,21.12 .29,1.31 1.466,2.066 1.92,3.36 2.698,7.698 1.058,17.185-.48,25.44-1.738.822-3.923,1.197-6.72.96-2.829,4.211-3.889,10.191-6.24,14.88 1.592,2.888 5.812,3.148 7.68,5.761 3.586,5.214 3.011,14.589 5.76,20.64 7.804-.441 13.25-1.412 21.6-2.4 .247-2.124 2.14-4.267 2.4-6.239 .319-2.414-1.194-5.006-1.44-7.681-.257-2.798-.289-6.953 0-10.08 .838-9.083 6.365-17.836 7.2-26.4 .956-9.802-2.818-14.803-6.24-21.12-.153-4.012-3.06-7.813-2.88-10.56 2.801-.561 1.792,2.688 3.84,2.88 .837-1.243.068-4.091 2.4-3.84-.649,3.349 1.646.63 1.92,1.44-.772,2.107-1.393,4.367-1.92,6.72 2.567,2.265 3.305,6.558 5.28,10.08 1.203,2.145 3.26,3.364 3.84,5.76 1.984,8.199-2.327,14.342-4.32,21.6 2.569,4.933 4.992,9.966 7.68,14.88 3.753,6.861 7.469,14.939 12.48,19.68 3.057,2.892 6.156,5.54 9.12,8.16 4.134,3.654 8.522,7.732 13.92,9.6-.361,1.802 1.834,1.047 1.92,2.4 3.362,1.118 6.348,2.612 8.64,4.8 7.288,1.192 9.889,7.072 18.24,7.2 .956-1.125 1.106-3.054.96-5.28 2.065-2.983 2.597-6.955 4.8-9.6 1.382-1.657 3.295-1.983 4.32-3.84-14.479-9.841-27.911-20.729-40.8-32.16-2.473-.062-4.023-.306-5.28-.48-1.427-.973-.671-4.128-2.399-4.8-2.282,2.641-5.606,7.63-10.08,9.12-2.956.984-7.433,1.842-9.6-.96 7.486-.515 13.641-2.359 16.32-7.68-1.847-3.586-2.703-7.779-4.8-12-1.81-3.644-4.565-7.113-6.721-11.041-1.89-3.445-3.525-7.979-5.279-12.48-1.79-4.592-4.814-8.847-5.28-12.96-.595-5.255-.567-6.213-2.4-10.08-1.928-4.069-3.58-6.303-5.76-9.6-3.685-5.573-5.062-6.392-12.48-7.2-6.748-.735-16.822-3.346-23.04-4.8 .97,2.858-.44,6.277-.48,9.123zm-66.24,5.76c-2.569.949-5.453,1.066-7.68,1.92-4.937,1.893-8.578,11.283-9.12,19.2-.17,2.483.485,4.702.48,7.2-.011,5.371-1.248,11.258-2.4,16.8-.752,3.619-2.32,7.477-2.88,11.52-.678,4.898-.598,10.764-.48,16.32 .131,6.189-.363,13.671.48,19.68 .403,2.873.966,10.679 1.92,12 .565.783 2.234,1.499 3.36,2.4 3.195,2.558 4.363,3.055 7.2,4.8 1.502.924 2.836,2.486 4.32,3.36 1.942,1.144 4.589,1.736 6.72,2.88 8.088,4.341 17.696,9.757 26.4,12.479 .335-9.692 2.695-15.131 9.12-19.199-9.38-4.7-16.169-11.991-26.88-15.36-2.377-3.383-5.684-5.837-11.52-5.76-3.546-3.334-10.418-3.342-13.44-7.2 6.728-.729 12.092,6.377 19.2,5.28-.125-7.856 1.678-12.671 3.36-18.721-3.531-6.253-9.489-10.27-10.56-18.239-1.089-8.105 2.443-18.262 2.88-26.88 .129-2.554-1.299-4.512.48-6.72 5.151-.186 3.519,3.607 3.36,6.72-.198,3.864-.574,8.829-.96,13.92-.811,10.693 1.962,17.318 5.28,22.56 2.93,4.63 6.475,10.098 9.12,13.92-.395,5.423-.788,11.933 0,17.76 3.827.974 5.565,4.035 9.6,4.801 .625,1.191-1.408,1.991 0,2.399 2.26-2.16 6.182-.459 9.6-.96 1.279-.188 2.514-1.319 3.84-1.439 1.563-.143 3.345.073 4.8.479 5.6-2.874 16.799-2.188 22.56-3.36-2.516-7.615-2.242-15.266-6.24-21.6-9.792-3.717-18.659-10.203-23.52-18.24-1.736-.176-4.833,1.739-6.72-.479-.863,1.119-4.251,1.519-5.28.96-.606-3.606.591-8.435.96-13.44 .291-3.95-.957-9.207 1.92-11.04 .902,7.211-.297,14.335-.96,22.08 7.511-2.729 15.729-4.751 18.72-12-4.105-8.927-3.107-20.305-3.36-31.2-2.749,5.944-3.55,15.673-4.32,22.08-4.48-9.808 5.021-21.33 0-28.8-6.667,3.838-7.603,11.435-8.64,20.64-.167,1.486-.657,5.708-2.4,5.76-.03-2.679-2.495-5.812-3.84-8.64-1.637-10.043-3.505-19.855-5.28-29.76-5.081,1.879-13.283,6.937-19.2,9.123zm57.6,5.76c-2.338-1.022-3.014-3.706-5.76-4.32-1.204,1.876 1.265,3.567 2.4,4.8 2.844,3.088 5.671,5.794 8.16,8.64 1.212,1.385 2.829,3.309 4.32,3.36-1.394-7.613-.213-15.704-3.36-22.08-1.19,3.931-2.29,7.949-5.76,9.603zm-7.68-6.72c-2.177-2.85-5.191-.947-8.64-.48 .043,3.691.879,6.39 2.88,9.12 5.797,1 5.053-4.545 5.76-8.637zm-24.48,13.917c2.204,1.156.68,6.041 3.36,6.72 .759-3.265.951-4.146 1.44-7.68-.927-1.792-3.09-2.35-2.88-5.28-2.146-1.053-1.866-4.534-3.84-5.76-.543,3.477 2.066,7.38 1.92,12zm24-4.8c2.212,4.327 6.172,9.411 7.2,15.36 .614,3.56 1.223,7.445 0,9.6-2.087-3.842-1.061-8.616-2.4-12.48-.046-.133-.872-.305-.96-.48-.257-.516.226-1.388 0-1.92-.102-.241-.79-.056-.96-.48-.64-1.599-.641-1.686-1.44-2.88-1.177-1.757-2.271-4.612-4.32-4.8 1.643,4.697 4.21,9.248 4.8,14.88 .288,2.751-.231,5.034.96,6.24-1.152,1.407-.968,4.152-.96,6.72 6.354,3.406 7.438,12.082 16.32,12.96 3.216-4.872.685-13.305 1.44-21.12-4.098-9.662-10.237-17.283-18.24-23.04-.268.69-.748,1.17-1.44,1.44zm0,19.68c-.082-1.358.413-3.293-.96-3.36-.349,1.12-1.215,3.59.96,3.36zm.48,5.76c-.225-1.696.785-4.625-1.44-4.32-.302,2.22.376,3.47 1.44,4.32zm1.92,12c-3.124,3.276-8.18,4.621-12,7.2 3.267,6.812 9.2,10.961 16.32,13.92 .936-4.824 2.754-8.767 4.32-12.96-3.309-4.051-7.159-7.561-9.6-12.48-1.767,2.01 1.11,2.45.96,4.32zm48.48,41.28c-.479,2.081-2.467,2.653-2.88,4.8 5.364-1.995 13.682-1.037 18.72-3.359-2.858-3.587-5.312-7.435-7.68-11.04-2.815-4.287-6.965-7.77-8.16-12.96h-1.44c-1.13,7.25-.64,16.94 1.44,22.56zm176.16-8.16c.044-.756 1.225-.376.96-1.439-.99-.42-1.82,1.58-.96,1.44zm-267.36,9.6c1.28.638 4.415,4.007 4.8,2.399-1.012-4.748-1.069-10.45-4.32-12.96 .427,3.88-1.071,8.09-.48,10.56zm262.08-9.12c-.949,1.993-3.566,2.354-5.279,3.359-10.85,6.365-21.361,13.521-32.16,19.681 .496,4.517-2.924,8.247-6.24,9.6-3.848,1.57-9.047,1.018-12.96,2.4-3.709,1.311-6.98,4.18-10.56,6.24-11.091,6.383-22.102,12.692-32.641,18.72-.232,2.566 2.387,2.772 3.84,3.84 10.42,7.653 22.321,13.803 33.12,20.64 21.824-27.775 43.507-55.692 64.32-84.479h-1.44zm-150.72,13.44c-.481.002-.571-.389-.96-.479-.567.232-1.088.512-1.44.96-29.971,2.22-57.973,7.342-85.439,9.12 1.785,4.935 8.841,4.599 11.04,9.12 3.341,1.459 7.909,1.69 12.96,1.439-.538-2.182-2.569-2.87-2.4-5.76 2.203-1.643 3.413-3.604 6.24-3.36 4.488.388 6.302,8.108 9.6,9.12 3.037.933 5.948-1.058 9.12-1.439 2.776-.335 5.184.033 8.16-.48 15.315-2.643 31.21-3.783 46.08-5.76-4.33-4.15-8.37-8.58-12.96-12.48zm138.72,10.08c2.576-3.184 5.19-6.329 7.2-10.08-2.72,2.73-6.74,6.7-7.2,10.08zm-40.32.96c-2.34.152-4.268,1.988-6.721,2.4-2.233.375-4.421-.353-6.239,0-3.806.738-5.049,3.456-8.16,5.76-.978,1.423-.748,4.053-2.88,4.32-1.919-2.183 1.641-4.335 0-6.24-6.041.858-8.577,7.858-8.16,14.88 3.687-.187 6.31-2.714 9.12-4.319 5.68-3.246 12.599-7.643 18.239-9.601 6.447-2.237 15.044.275 17.28-6.72-4.48,1.51-9.04-.7-12.48-.48zm-33.6.96c-4.839,3.481-7.035,9.605-8.64,16.32 1.881,2.279 4.092,4.229 7.2,5.28 .817-4.153-.311-8.702 1.439-12 1.571-2.961 5.311-4.144 6.721-7.2-2.2-.84-4.2-1.88-6.72-2.4zm-47.52,2.88c-2.932-.371-4.491.629-7.2.48 2.754,4.206 7.329,3.78 12.479,3.84-.09-3.11-4.26-2.13-5.28-4.32zm-79.2,1.44h1.44c.062-.862-.477-1.123-1.44-.96v.96zm192.96,2.88c1.454-.043 4.113-3.268 1.92-3.84 .23,2.15-2,1.85-1.92,3.84zm-130.56-2.4c1.595,5.031 6.831,4.284 12,2.88-3.25-3.24-6.45-4.75-12-2.88zm-61.44.96c.526,1.714 1.646,2.833 3.36,3.359 .141-.979 1.299-.941 1.44-1.92-1.04-1.8-2.66-3.09-4.8-1.44zm50.88,1.44c1.776.363 2.224,2.445 4.32,2.88 2.337.485 5.523-.822 7.68-1.439-1.99-2.77-9.01-5.23-12-1.44zm-9.12,0c1.358,3.832 6.407,4.559 10.08,2.4-1.87-2.04-6.03-4.11-10.08-2.4zm-10.56,1.92c2.607,3.162 6.359,3.521 11.52,2.4-1.22-4.09-7.76-4.75-11.52-2.4zm-51.84-.48c-5.123,2.158-7.531,7.891-8.16,13.92 1.792.279 4.437.07 5.76,1.92 .661-6.379 3.379-10.701 7.2-13.92-1.912-.45-3.103-2.63-4.8-1.92zm43.2,2.88c-1.556-1.301-4.484-2.32-6.24-.48 1.381.54 3.235.605 3.36,2.4h3.84c1.14-.511-1.029-2.211.48-2.88 2.037,1.915 6.89,3.852 8.64.96-2.74-2.11-7.95-4.36-10.08,0zm56.16-1.44c2.5,2.668 7.41,2.53 11.04,1.92-.14-4.18-8.62-4.34-11.04-1.92zm110.88,1.44c.546-1.055 1.605-1.595 1.92-2.88-1.35.22-3.88,2.27-1.92,2.88zm-185.28-.48c1.508.228 1.961-.599 2.4-1.439-1.22.06-2.47.09-2.4,1.44zm63.84-.48c.563,1.516 2.089,2.071 2.88,3.359 2.708-.651 7.032.312 8.64-1.439-3.42-3.23-7.38-2.87-11.52-1.92zm-11.04,1.44c1.813,2.78 8.366,4.104 11.52,1.44-2.85-3.22-6.61-2.59-11.52-1.44zm-70.08,17.76c1.725,3.686 7.517,7.267 10.56,9.119 1.834,1.117 2.727,2.022 4.8,1.921 .28,2.609 3.24,5.066 5.76,3.84-1.734-3.621-5.865-3.062-7.2-6.24 5.391-.107 9.194,3.921 14.4,2.4-2.167-1.304-4.65-2.176-7.2-3.36-2.106-.979-5.625-1.814-6.24-4.32 7.43-.574 12.355,8.944 18.72,3.36-2.718.478-3.042-1.438-5.76-.96-3.088-4.112-9.367-5.033-12.48-9.12 4.617-.093 8.917,4.171 12.48,6.72 5.225.744 7.686,2.579 12.96,2.4-.077-3.157-4.694-3.979-7.68-5.28-3.862-1.683-7.965-3.844-10.08-6.24-.814-4.945-4.958-6.562-6.72-10.56-4.584-.474-9.096.643-12.96,0-1.597-.266-2.935-1.393-4.32-1.44-3.147-.107-6.475,8.363-7.2,11.521 2.687,2.12 4.323,5.28 8.16,6.24zm18.72-16.8c.713.756 2.145.535 1.92-.96-1.09-.13-1.8.12-1.92.96zm42.72-.48c1.217,4.105 5.166,3.948 9.6,2.88-1.4-3.29-5.4-3.55-9.6-2.88zm139.2,1.44c.027-.292.072-.567.48-.479-.055-.586-.144-1.137-.96-.96 .08.57-.08,1.36.48,1.44zm-149.28-.48c1.584,5.107 5.264,3.458 10.56,2.88-2.33-3.97-4.97-3.16-10.56-2.88zm46.56.96c1.443,1.597 3.333,2.747 5.28,3.84 .701-.5 3.755-1.29 6.72-.96-2.25-4.32-6.3-3.67-12-2.88zm-55.68,0c1.562,2.897 6.502,4.926 9.6,2.4-2.68-2.29-4.54-3.17-9.6-2.4zm-8.64,12.96c-3.548-4.132-6.875-8.484-10.08-12.96-1.723-.397-2.322,1.082-3.36,0 3.55,4.94 6.84,12.68 13.44,12.96zm0-4.8c-2.324-2.796-1.374-8.866-7.2-8.16 1.96,2.85 4.89,7.27 7.2,8.16zm81.12-6.24c-2.012.092-1.483-2.356-3.84-1.92 .18,1.6 3.06,3.91 3.84,1.92zm84-.96c.826.025 1.23-.369 1.44-.96-.75.05-1.66-.06-1.44.96zm-164.16.96c1.787,2.311 4.914,3.562 8.16,1.92-.65-3.34-6.13-4.69-8.16-1.92zm52.32-.96c2.367,3.83 8.507,5.212 12,2.4-1.656-.584-2.537-1.943-3.84-2.881-3.72.23-4.92.13-8.16.48zm-10.08,1.92c2.985,2.881 5.774,3.132 11.521,2.88-.88-3.95-8.12-5.76-11.52-2.88zm118.08,2.88c1.621-.269 4.218-3.142 2.4-3.84-.29,1.79-2.21,1.96-2.4,3.84zm-127.68-1.92c2.044,2.28 7.154,4.04 11.52,2.4-2.78-2.99-8.1-4.84-11.52-2.4zm-10.08.96c2.046,2.838 7.5,3.443 11.52,2.88-1.34-4.38-7.36-4.94-11.52-2.88zm67.2,2.88c-1.478-1.89-5.057-4.213-8.16-2.88 1.77,1.91 3.99,3.37 8.16,2.88zm-75.36-1.92c2.393,2.289 5.282,4.279 9.6,2.4-1.79-2.22-6.04-4.85-9.6-2.4zm57.12-.48c-.23,4.58 8.32,3.995 10.56,1.92-2.35-2.64-5.98-2.4-10.56-1.92zm-66.24,1.44c2.709,2.473 4.2,3.687 9.6,2.88-.53-4.06-6.43-5.47-9.6-2.88zm54.72.96c2.809,2.721 6.326,2.509 11.04,1.44-1.03-3.82-8.16-4.06-11.04-1.44zm-10.56.96c.638.882 2.097,2.116 3.84,2.4 1.463.238 6.395-.429 6.72-1.44-1.955-2.913-6.488-1.491-8.64-3.359 .63,2.07-2.28.6-1.92,2.4zm-46.08,1.92h2.88c-.146-1.774-2.04-1.8-2.88-2.88v2.88zm36.96-1.92c1.224,4.216 6.718,2.827 9.6,3.36-1.57-3.91-6.61-4.02-9.6-3.36zm48,.96c.252,2.629 2.567,3.192 4.32,4.32 2.172-.067 2.512-1.968 4.8-1.92-.83-4.17-6.85-3.15-9.12-2.4zm-58.56.48c1.518,3.574 6.803,2.646 10.56,2.88-.68-4.21-6.78-4.39-10.56-2.88zm-8.64,1.44c2.28,2.025 6.122,3.034 9.12,1.921-.96-3.18-6.45-4.45-9.12-1.92zm64.8-1.44c-3.62-.372-6.004,1.231-8.64.479 2.222,4.316 7.576,5.103 12.48,3.36-.87-1.69-2.9-2.22-3.84-3.84zm70.08,2.4c.148-1.132 1.667-.893 1.44-2.399-1.01,0-2.49,1.93-1.44,2.4zm-143.52,0c1.739,2.478 6.98,2.956 9.6,1.921-1.45-2.1-7-5.45-9.6-1.92zm53.76,0c2.257,2.829 9.29,4.473 12.96,2.881-1.81-3.27-8.42-5.34-12.96-2.88zm-61.92,0c.817,4.38 5.592,3.67 8.64,2.881-1.21-2.39-4.96-4.52-8.64-2.88zm51.36.48c2.059,4.037 6.038,4.614 12,3.84-1.25-4.61-6.53-4.57-12-3.84zm98.4.96c.826.025 1.23-.369 1.44-.96-.83-.02-1.23.37-1.44.96zm-107.52,0c1.133,2.388 3.837,3.202 5.76,4.8 .865-1.214 3.751-.409 4.8-1.439-1.75-3.3-5.66-4.44-10.56-3.36zm-96.48.96c-.248,1.715 4.305,1.099 4.8.48-.657-1.07-3.627-1.41-4.8-.48zm85.92.96c3.321,2.647 6.442,4.802 12,2.88-1.4-3.88-7.94-5.66-12-2.88zm-8.16.96c2.51,1.464 6.129,5.382 10.08,2.4-2.22-2.26-6.6-5.47-10.08-2.4zm123.36.96c1.239.234 2.722-1.697 1.44-2.399-.15,1.14-1.67.9-1.44,2.4zm-132.96,0c3.076,2.113 6.507,3.962 11.04,3.36-1.13-3.82-7.23-6.41-11.04-3.36zm67.2,0c.907-.213 2.893.653 2.399-.96-.91.22-2.89-.65-2.4.96zm-127.2,3.84c1.715.537 4.872.539 5.76-.96-2.623-1.697-4.331-4.309-9.6-3.359-.029,1.66 2.158,3.8 3.84,4.32zm50.88-2.88c2.697,2.519 6.197,3.638 10.56,3.36-.64-4.6-7.92-5.96-10.56-3.36zm65.28-.48c1.24,3.617 6.768,3.977 10.08,1.92-1.15-3.77-6.33-2.61-10.08-1.92zm-10.56.96c1.54,4.079 6.426,4.108 10.561,2.399-1.35-3.96-5.98-2.31-10.56-2.4zm84.48,2.4c1.239.234 2.721-1.697 1.44-2.399-.15,1.14-1.67.9-1.44,2.4zm-93.6-.96c1.475,2.796 5.112,3.368 9.119,2.4-.68-3.67-6.13-3.52-9.12-2.4zm-10.08.96c.812,3.704 6.266,2.977 10.08,2.4-1.04-3.47-6.16-3.08-10.08-2.4zm-.48,3.36c-.765-2.755-3.858-3.182-7.68-2.88-.19,3.48 4.86,3.97 7.68,2.88zm-73.92,1.92c-.751-3.729-4.714-4.246-9.6-3.84 2.206,3.42 5.024,4.94 9.6,3.84zm65.76-1.44c-1.441-2.398-4.924-2.756-9.12-2.4 1.18,3.84 5.59,4.29 9.12,2.4zm49.44,2.4c2.613-.374 5.42.703 5.76-.96-2.837-1.803-4.881-4.398-10.08-3.84 .23,2.82 3.76,2.32 4.32,4.8zm60-2.88c1.645.835 2.982-2.083.96-1.92 .59,1.56-1.55.37-.96,1.92zm-133.44,6.72c-.072-4.248-3.009-5.631-4.8-8.16h-2.4c1.36,3.77 3.05,7.2 7.2,8.16zm14.88-5.28c-1.703-2.298-5.234-2.767-9.6-2.4 1.62,4.34 7.15,4.37 9.6,2.4zm43.68-1.92c2.149,3.969 6.318,5.535 12.479,4.32-1.32-4.27-6.84-5.82-12.48-4.32zm-53.76,3.36c-.208-1.888-2.793-3.904-4.8-2.399 1.51,1 2.44,3.66 4.8,2.4zm55.68,1.44c-2.319-3.132-6.268-4.937-11.04-4.32 1.63,4.24 6.41,6.94 11.04,4.32zm-73.92-1.92c1.205.891 3.042,3.655 5.28,1.92-1.03-1.3-4.09-5.14-5.28-1.92zm51.84,0c3.317,2.314 7.997,6.36 12.96,2.88-2.57-2.76-8.36-6.44-12.96-2.88zm-7.68,0c.906,3.768 6.57,7.007 10.08,3.84-3.36-1.69-4.6-5.49-10.08-3.84zm-56.16,1.44c1.489-.05 1.37,1.511 3.36.96-.1-1.38-2.99-2.73-3.36-.96zm-18.72.96c1.989,1.54 7.315,5.751 10.08,1.92-1.992-2.58-6.594-4.43-10.08-1.92zm71.52,3.84c1.781-.458 4.55.07 5.28-1.439-3.181-1.779-5.087-4.833-11.041-3.84 .41,3.27 4.28,3.08 5.76,5.28zm-44.16-2.88c1.148-.292 3.482.603 3.84-.479-.82-.67-3.91-2.06-3.84.48zm34.08,3.84c2.457.377 3.487-.673 5.76-.479-1.497-3.623-4.723-5.518-10.56-4.8 .35,3.02 3.55,3.18 4.8,5.28zm59.52-3.84c3.314,2.267 5.18,3.907 11.039,2.88-.99-3.71-7.8-5.69-11.04-2.88zm-71.52,5.28c2.79-.733 6.599.421 8.64-1.92-2.964-1.677-4.326-4.955-10.08-3.84 .31,2.1.25,4.55 1.44,5.76zm61.44-4.32c1.256,1.145 3.408,1.392 3.84,3.36 3.437-.267 4.45-.006 7.68-.48-2.17-4.51-7.02-4.58-11.52-2.88zm63.84,2.88c2.281-.278 4.426-.693 7.2-.479-1.18-4.15-6.27-2.85-7.2.48zm-72.96-1.92c1.626,2.968 7.866,4.605 10.56,2.4-1.638-.923-2.933-2.187-4.32-3.36-2.66.54-4-.26-6.24.96zm-75.36.48c1.892,3.691 6.435,5.132 12,3.84-2-4.65-6.42-4.8-12-3.84zm18.72,2.88c-2.173-1.827-5.53-2.47-8.16-3.84 1.52,2.17 4.77,5.15 8.16,3.84zm46.56-2.88c.116,4.178 8.238,5.018 11.52,2.88-2.94-2.4-6.25-3.96-11.52-2.88zm.48,4.8c-1.242-3.237-4.573-4.386-9.6-3.84 1.33,3.16 4.66,4.3 9.6,3.84zm-84.48-2.88c2.723,4.758 6.544,5.069 12.48,3.84-1.84-4.15-6.76-4.72-12.48-3.84zm12.48,0c1.654,3.108 4.628,4.565 7.68,2.88-1.22-2.81-3.9-3.79-7.68-2.88zm63.36,3.84c-1.242-3.237-4.574-4.386-9.6-3.84 1.59,3.5 4.72,4.73 9.6,3.84zm51.36-3.84c-1.785-.33-5.143.007-6.24,1.44 2.89,3.725 6.055,3.405 11.04,2.399-.84-1.22-2.43-3.4-4.8-3.84zm55.2,3.36c-1.762-.638-2.597-2.203-4.319-2.881-3.258-.057-5.569.832-9.12.48 1.114,6.729 8.445,1.405 12,3.84-2.354.686-5.237.843-7.2,1.92 3.646,2.286 9.599-.354 13.92-.479-2.163-.743-3.578-2.48-6.24-1.44 .12-.68.79-.81.96-1.44zm-125.76-1.44c3.071,2.604 5.508,4.438 10.561,2.88-.98-3-7.08-5.52-10.56-2.88zm53.76,0c1.054,2.967 8.079,5.938 11.04,2.4-2.76-3-5.86-3.68-11.04-2.4zm-66.24.96c2.753,3.423 7.443,4.637 12.96,2.88-1.42-5.19-8.03-4.28-12.96-2.88zm118.56,2.4c1.896,1.3 3.295-1.307 6.24-.48-1.03-3.67-5.58-3.18-6.24.48zm-61.44-2.4c1.881,2.759 4.842,4.438 10.079,3.84-1.13-4.68-5.77-4.4-10.08-3.84zm-55.2,3.36c-3.203-.957-3.827-4.493-9.12-3.36 1.31,2.6 6.13,6.94 9.12,3.36zm-18.72-1.92c-.274,3.743 7.174,5.603 11.04,2.88-2.33-3.25-5.58-3.51-11.04-2.88zm63.36.48c2.516,2.285 6.043,3.558 11.521,2.88-.1-4.59-9.39-4.71-11.52-2.88zm-8.64.96c2.297,2.183 5.809,3.151 10.08,3.36-.8-3.19-6.62-5.97-10.08-3.36zm-54.24,2.4c-1.88-1.487-4.966-4.305-8.64-2.4 2.11,1.76 5.73,5.65 8.64,2.4zm46.08-1.44c1.418,2.94 7.146,4.519 9.6,2.4-2.68-2.12-6.4-5.83-9.6-2.4zm-65.76,0c2.669,3.91 6.579,4.533 12.48,3.36-2.21-3.92-6.76-4.88-12.48-3.36zm119.52.48c2.081,2.824 5.7,1.191 10.08,1.439-.5-3.9-7.61-3.19-10.08-1.44zm-63.84.48c2.414,2.621 7.143,4.525 10.56,2.4-2.31-2.68-6.4-5.09-10.56-2.4zm97.44-.48c-.75.689-1.671,1.209-1.92,2.399 3.172-.094 9.423-1.087 13.92-1.439-1.62-3.79-8.08.6-12-.96zm-44.16,1.44c2.533,2.214 5.182,1.493 9.6,1.44 1.19-3.62-7.48-4.28-9.6-1.44zm39.36,0c.069-.566.855-1.088 0-1.439-.07.57-.86,1.09 0,1.44zm-103.68,0c-.219,3.498 9.742,5.053 11.52,1.92-1.94-3.46-8.65-2.96-11.52-1.92zm56.16,0c-.852,2.722 6.187,3.841 8.16,1.44-1.9-1.94-5.87-2.31-8.16-1.44zm-64.8.96c2.166,1.835 4.014,3.986 8.64,3.36-1.25-3.22-4.83-5.22-8.64-3.36zm54.24.48c.734,3.59 7.187,3.161 9.601.96-3.23-2.52-5.7-1.48-9.6-.96zm44.64,0c.013,1.558 3.246,2.907 3.84.96-1.48-.12-2.64-2.01-3.84-.96zm-106.08,3.84c2.781.235 6.81-.35 8.16,0-.282-4.742-7.555-3.739-11.04-3.84-.48,2.72 2.94,1.54 2.88,3.84zm52.8-2.88c1.104,3.119 5.027,2.333 7.68,2.88 .05-3.88-4.39-3.64-7.68-2.88zm43.2,0c.971,2.692 7.74,1.391 9.12,0-2.79-1.23-5.6.5-9.12,0zm-98.4,3.36c-1.19-2.49-3.518-3.842-7.68-3.36 .4,3.05 4.32,4.84 7.68,3.36zm46.08-1.92c1.638,2.101 6.343,2.716 8.641,1.44-.93-2.86-7.32-2.94-8.64-1.44zm42.24.96c3.041.934 5.32.077 8.64-.48-.73-2.13-7.71-1.56-8.64.48zm-107.04-.48c2,3.188 7.495,2.975 11.52,2.88-.28-4.02-8.14-5.11-11.52-2.88zm55.2,0c1.022,2.5 6.633,3.321 8.64,1.92-.08-3.21-6.12-2.71-8.64-1.92zm50.4.48c-1.577-.983-4.86-.26-7.199-.48 .7,3.1 5.5,2.04 7.2.48zm-62.4.48c.608,1.632 2.266,2.214 3.84,2.88 2.335.755 5.392-1.615 5.28.96-.36,1.56-3.733.107-3.36,2.4 3.28,1.475 5.572-1.207 9.6-.48 .373-2.933-4.766-.354-5.76-1.92-.361-1.801 1.834-1.046 1.92-2.399-2.15-2.96-7.27-1.52-11.52-1.44zm45.12,1.44c2.505.78 5.271.554 7.68,0-.38-2.7-6.88-1.41-7.68,0zm-52.32-.48c.465,2.266 4.111,3.875 6.72,2.4-1.39-2.6-4-3.23-6.72-2.4zm44.16,1.44c2.028,1.256 3.981-.396 6.24.479-.22-2.54-5.31-2.37-6.24-.48zm-55.2.48c1.587,2.572 6.438,1.882 10.56,1.92-.61-3.86-7.8-4.27-10.56-1.92zm51.84-.96c-1.144,1.257-5.487-.687-5.76,1.44 1.457.797 6.223.797 7.68,0-.64-.48-1.45-.79-1.92-1.44zm-59.52.96c1.117,2.243 3.461,3.26 7.2,2.88-.79-2.92-4-3.65-7.2-2.88zm-10.08,1.92c2.578,2.477 6.536,2.802 10.08,1.44-.95-3.38-7.49-3.52-10.08-1.44zm54.24-.48c1.457.797 6.223.797 7.68,0-.9-1.16-6.91-1.85-7.68,0zm-14.4,1.92c-1.691-1.507-3.783-.467-5.76-.96 .05,2.93 4.9,2.03 5.76.96zm-16.32,1.44c2.182.896 7.008.729 8.64-.479-2.17-1.48-6.92-1.37-8.64.48zm-7.68.48c.903,1.378 4.292,1.21 5.28,0-1.24-1.32-4.68-1.05-5.28,0zm-9.6,1.44c2.232,1.439 5.674-.452 7.68.48-.06-3.19-6.55-1.92-7.68-.48z"/> <path d="m63.84,18.123c4.112,1.168 5.596,4.964 9.12,6.72-.079,3.726.397,4.624 2.4,6.72 .016-2.564-.253-8.22 1.92-10.08 1.977.376 2.463-.737 4.32-.48 2.167,1.84 1.896,9.024.48,11.52 3.893,3.296 10.379,2.342 15.84,1.92 2.035-.319 4.5-3.835 5.28,0-2.38.82-5.935.465-7.2,2.4 2.701,3.332 7.338-.88 11.04.96-.472,1.768-1.713,2.767-2.4,4.32-.191,1.951 2.043,1.478 2.4,2.88 .273,1.553-.146,2.415-.96,2.88 1.255,3.744-1.061,7.206.48,9.6-1.312,2.688-1.483,6.517-2.4,9.6-6.34,4.86-8.217,14.183-21.6,12-5.178-3.622-9.352-8.249-14.4-12-.662-2.698-1.743-4.977-1.92-8.16-.462-1.742 2.157-.403 1.92-1.92-.489-3.034-3.267-6.688-.96-9.6-3.29-2.982.938-7.005.96-11.04 4.791.059 10.105,1.988 14.4.96-.848-2.191-3.455-2.625-6.24-2.88v-1.92c-2.358.097-3.328-2.309-6.72-2.4-1.254-1.946-2.708-3.691-5.76-3.84-1.184-1.536-1.257-4.183-3.84-4.32-.956-2.749-.432-4.024-1.92-6.24 2.321-2.397 5.727-2.016 5.76,2.4zm27.36,29.76c1.889.769.167-2.073 1.44-1.92 3.341,1.779 6.306,1.048 10.56.48 .713-1.798.791-1.451.48-3.84-3.649-3.25-9.535-.332-11.04,2.88-.301-3.661 2.432-4.288 2.88-7.2-4.348.881-5.334,5.863-4.32,9.6zm-16.8-7.68c-.958.375-3.545,3.191-3.36,3.84 .83,2.91 8.125,2.123 12,1.44 .774-1.976-1.543-3.501-2.4-5.28-1.89.551-4.628-.632-6.24,0zm20.64,15.84c1.329-.917 1.207-3.422-.96-3.36 .082,1.358-.413,3.293.96,3.36zm-14.4-.48c.908-.108 1.059.541 1.92.48-.396-1.357.677-1.244.48-2.4-1.283-1.227-2.718.103-2.4,1.92zm2.88-.48c1.339.42 2.371,1.149 3.84,1.44v-1.92c-1.067-.374-1.872-1.008-3.36-.96 .021.661-.226,1.054-.48,1.44zm9.6-.48c-.207-1.073-2.366-.195-3.36-.48-.288,3.146 2.676,2.3 3.36.48zm-2.88,6.24c-4.915-1.643-9.201-.292-12.48,1.92-.974-1.441-4.106-.611-3.84,1.92 1.65-.21 2.69.19 3.84.48 .396,4.884 5.774,4.786 9.6,6.24 5.552-.848 9.09-3.709 11.52-7.68 1.191.071 2.33.089 2.4-.96-1.136.125-1.505-1.569-2.88-1.92 .173.044-.911.946-1.44.96-2.498.064-4.437-2.883-6.24-1.44 .646,1.914 3.68,1.44 4.8,2.88-2.222.302-3.464-.375-4.32-1.44-1.509-.145-3.849,3.174-4.8.48 .234-1.526 4.328.807 3.84-1.44z" fill="#fff"/> <path d="m61.92,84.363c1.775,9.905 3.643,19.717 5.28,29.76 1.345,2.827 3.81,5.96 3.84,8.64 1.743-.052 2.232-4.274 2.4-5.76 1.037-9.205 1.973-16.802 8.64-20.64 5.021,7.47-4.48,18.992 0,28.8 .77-6.406 1.571-16.136 4.32-22.08 .253,10.895-.745,22.272 3.36,31.2-2.991,7.249-11.209,9.271-18.72,12 .663-7.745 1.862-14.869.96-22.08-2.876,1.833-1.629,7.09-1.92,11.04-.369,5.006-1.566,9.834-.96,13.44 1.028.559 4.417.159 5.28-.96 1.887,2.219 4.984.304 6.72.479 4.861,8.037 13.728,14.523 23.52,18.24 3.998,6.334 3.724,13.984 6.24,21.6-5.761,1.172-16.959.486-22.56,3.36-1.455-.406-3.237-.622-4.8-.479-1.326.12-2.561,1.252-3.84,1.439-3.418.501-7.34-1.2-9.6.96-1.408-.408.625-1.208 0-2.399-4.035-.766-5.773-3.827-9.6-4.801-.788-5.827-.395-12.337 0-17.76-2.645-3.822-6.189-9.29-9.12-13.92-3.318-5.242-6.091-11.867-5.28-22.56 .386-5.091.762-10.056.96-13.92 .159-3.113 1.791-6.906-3.36-6.72-1.779,2.208-.351,4.167-.48,6.72-.437,8.619-3.969,18.775-2.88,26.88 1.071,7.97 7.028,11.986 10.56,18.239-1.682,6.05-3.484,10.864-3.36,18.721-7.108,1.097-12.472-6.009-19.2-5.28 3.021,3.858 9.894,3.866 13.44,7.2 5.836-.077 9.143,2.377 11.52,5.76 10.71,3.369 17.5,10.66 26.88,15.36-6.425,4.068-8.785,9.507-9.12,19.199-8.704-2.723-18.312-8.139-26.4-12.479-2.131-1.144-4.778-1.736-6.72-2.88-1.483-.874-2.817-2.437-4.32-3.36-2.837-1.745-4.005-2.242-7.2-4.8-1.125-.901-2.794-1.617-3.36-2.4-.954-1.321-1.517-9.127-1.92-12-.843-6.009-.349-13.49-.48-19.68-.118-5.557-.198-11.422.48-16.32 .56-4.043 2.127-7.9 2.88-11.52 1.152-5.542 2.389-11.43 2.4-16.8 .005-2.498-.65-4.716-.48-7.2 .542-7.917 4.183-17.308 9.12-19.2 2.227-.854 5.111-.971 7.68-1.92 5.917-2.183 14.119-7.241 19.2-9.117zm-27.84,12.96c-.826-.026-1.23.37-1.44.96 3.498,1.942 4.313,6.566 7.68,8.64-.668-4.61-4.107-6.45-6.24-9.597zm11.04,83.517c.616-.631.616-1.77 0-2.4-.661-.021-1.054.226-1.44.48-.135,1.26.175,2.07 1.44,1.92zm-12.48-9.12c.124,2.116 2.055,2.425 3.84,2.88 1.957,1.723 3.743,3.616 6.24,4.8 .481.002.571-.389.96-.479-2.826-2.97-6.965-7.06-11.04-7.2zm65.76,1.92c-1.636.304-2.875,3.76-2.4,5.76 1.146,4.819 8.636,3.852 9.12-1.44-2.14-1.87-4.48-4.73-6.72-4.32z" fill="#fff"/> <path d="m320.16,170.76c.265,1.063-.916.684-.96,1.439-.86.14-.03-1.86.96-1.44z" fill="#fff"/> <path d="m309.12,186.12c-2.01,3.751-4.624,6.896-7.2,10.08 .46-3.38 4.48-7.35 7.2-10.08z" fill="#fff"/> <path d="m315.36,172.68c-20.813,28.787-42.496,56.704-64.32,84.479-10.799-6.837-22.7-12.986-33.12-20.64-1.453-1.067-4.072-1.273-3.84-3.84 10.539-6.027 21.55-12.337 32.641-18.72 3.579-2.061 6.851-4.93 10.56-6.24 3.913-1.383 9.112-.83 12.96-2.4 3.316-1.353 6.736-5.083 6.24-9.6 10.799-6.159 21.311-13.315 32.16-19.681 1.713-1.005 4.33-1.366 5.279-3.359h1.44zm-73.44,49.92v3.84c-3.025,1.454-6.171,2.789-8.64,4.8-1.112.968-3.776.384-3.84,2.4 7.062,4.617 14.215,9.145 21.6,13.439 7.846-9.273 14.506-19.734 23.521-27.84 1.787-3.973 4.687-6.833 7.68-9.6 .395-3.446 3.446-4.234 3.84-7.681-7.271,2.01-12.271,6.29-18.72,9.12-3.034-1.174-6.511-3.543-9.601-1.92-1.034.406.181,3.061-.96,3.36-2.559-.318-4.276.203-5.279,1.44-.424,1.581 2.351,2.398.96,3.359-1.896-.907-4.146-1.502-6.24-.96-.157,2.557 1.153,3.647 1.44,5.76-1.78-1.28-4.48-1.08-5.76.48z" fill="#fff"/> <path d="m81.12,221.64c.725-3.157 4.053-11.628 7.2-11.521 1.385.048 2.723,1.175 4.32,1.44 3.864.643 8.376-.474 12.96,0 1.762,3.998 5.906,5.614 6.72,10.56 2.115,2.396 6.218,4.558 10.08,6.24 2.986,1.301 7.603,2.123 7.68,5.28-5.274.179-7.735-1.656-12.96-2.4-3.563-2.549-7.863-6.812-12.48-6.72 3.113,4.087 9.392,5.008 12.48,9.12 2.718-.479 3.042,1.438 5.76.96-6.365,5.584-11.29-3.935-18.72-3.36 .615,2.506 4.134,3.342 6.24,4.32 2.549,1.185 5.033,2.057 7.2,3.36-5.206,1.521-9.009-2.508-14.4-2.4 1.335,3.179 5.466,2.619 7.2,6.24-2.52,1.227-5.48-1.23-5.76-3.84-2.073.102-2.965-.804-4.8-1.921-3.043-1.853-8.835-5.434-10.56-9.119-3.837-.96-5.473-4.12-8.16-6.24z" fill="#fff"/> <path d="m115.68,212.52c5.826-.706 4.875,5.364 7.2,8.16-2.31-.89-5.24-5.31-7.2-8.16z" fill="#fff"/> <path d="m86.4,62.283c.952,2.694 3.292-.625 4.8-.48 .855,1.064 2.098,1.742 4.32,1.44-1.12-1.44-4.154-.966-4.8-2.88 1.803-1.443 3.742,1.504 6.24,1.44 .529-.014 1.613-.916 1.44-.96 1.375.351 1.744,2.044 2.88,1.92-.071,1.049-1.209,1.031-2.4.96-2.429,3.971-5.968,6.833-11.52,7.68-3.826-1.454-9.204-1.356-9.6-6.24-1.15-.29-2.19-.69-3.84-.48-.266-2.531 2.867-3.361 3.84-1.92 3.279-2.212 7.565-3.562 12.48-1.92 .488,2.247-3.606-.086-3.84,1.44zm-3.84,2.4c-.58.102-.295.533 0,.96 2.386.562 7.754,1.587 9.6-.48-1.722-.997-6.986-.877-9.6-.48zm-.48,3.36c2.258,1.985 12.465,2.045 10.08-1.44-2.42,2.755-6.874.377-10.08,1.44z"/> <path d="m280.8,252.36c2.662-1.04 4.077.697 6.24,1.44-4.321.126-10.274,2.766-13.92.479 1.963-1.077 4.846-1.234 7.2-1.92-3.555-2.435-10.886,2.889-12-3.84 3.551.352 5.862-.537 9.12-.48 1.723.678 2.558,2.243 4.319,2.881-.17.63-.84.76-.96,1.44z" fill="#fff"/> </g> </svg>