<?xml version='1.0' encoding='utf-8'?>
<svg xmlns:xlink="http://www.w3.org/1999/xlink" xmlns="http://www.w3.org/2000/svg" viewBox="0 0 128 128"> <defs> <clipPath id="b"> <path id="a" d="m-69.7 28.5 0.76 0.16c8.84-2.94 28.68 8.64 24.26 18.96-1.12 1.62-0.93001 4.5 0.41998 6.31l-24.81 24.82c-1.39-1.39-4.48-1.36-5.9 0l-41.03 39.38c-3.74 3.59-0.8 6.64 0.78 8.25l7.36 7.36c1.61 1.6 5.86 3.76 8.88 0.56l38.72-40.81c1.35-1.42 1.36-4.47 0-5.87 0 0 0.01001-0.020004 0-0.020004l24.91-24.9c2.63 2.37 5.1138 2.5748 7.47 1.93 4.5506-1.2454 7.0872 3.2066 9.81 6.46l-1.23 1.21c-1.82 1.84-1.65 4.94 0.39 6.98s5.15 2.21 6.97 0.39l8.14-8.13c1.82-1.84 1.65-4.94-0.39999-6.97-1.84-1.85-4.51-2.09-6.37-0.77-5.58-6.26-2.65-7.2-10.01-15.35l-13.79-14.09c-9.93-9.74-22.83-9.73-35.33-5.86z"/> </clipPath> </defs> <use class="outline-big" x="125.5" y="-21.5" xlink:href="#a"/> <use class="outline-small stroke-aluminium5" x="125.5" y="-21.5" xlink:href="#a"/> <use class="stroke-highlight" x="125.5" y="-21.5" clip-path="url(#b)" xlink:href="#a"/> </svg>