<?xml version='1.0' encoding='utf-8'?>
<svg xmlns="http://www.w3.org/2000/svg" data-name="Layer 1" viewBox="0 0 1e3 1e3"> <defs> <style>.cls-1 { fill: none; stroke-linecap: round; stroke-width: 30px; } .cls-1, .cls-2 { stroke: #000; stroke-miterlimit: 10; } .cls-2 { fill: #fff; stroke-width: 25px; }</style> </defs> <path class="cls-2" d="M750.94,313.63c0-138.58-112.23-250.95-250.75-251.18-135.1-.22-249.38,111.94-251.57,247.02-1.3,80.55,35.33,152.59,93.19,199.44,22.58,18.29,35.6,45.87,35.6,74.93v57.27c0,11.76,9.53,21.29,21.29,21.29h202.12c11.76,0,21.29-9.53,21.29-21.29v-57.27c0-29.15,13.17-56.73,35.81-75.1,56.75-46.05,93.02-116.34,93.02-195.12Z"/> <path class="cls-1" d="m591.26 846.46c0 18.84-41.08 47.04-91.76 47.04s-91.76-28.2-91.76-47.04"/> <line class="cls-1" x1="611.33" x2="387.65" y1="706.47" y2="706.47"/> <line class="cls-1" x1="611.33" x2="387.65" y1="750.54" y2="750.54"/> <line class="cls-1" x1="611.33" x2="387.65" y1="794.6" y2="794.6"/> <line class="cls-1" x1="611.33" x2="387.65" y1="838.66" y2="838.66"/> <path d="m373.29 141.99c-66.85 102.15-66.85 238.36 0 340.52-8.2-6.02-16.21-12.95-23.35-20.2-81.17-86.2-81.19-213.9 0-300.12 7.14-7.25 15.15-14.18 23.35-20.2z"/> <path d="M387.82,492.43c-58.53-110.35-58.53-250.01,0-360.36,11.12-6.94,22.89-12.84,35.1-17.61,23.26-10.58,28.39,32.98,30.47,44.86,8.62,49.02,10.49,100.46,10.47,150.68-.02,52.65-.51,107.5-11.2,158.66-2.21,10.6-7.29,50.07-27.92,42.08-12.87-4.88-25.25-11.02-36.92-18.31ZM393.4,424.97c3.83.7,5.76,1.04,9.66,1.68,11.11-3.37,11.06-18.64,12.4-28.17,4.05-28.67,3.13-59.26,3.18-88.76.05-27.58.46-55.94-2.51-82.86-.77-6.99-.62-30.39-12.89-30.18-3.88.65-5.81.99-9.64,1.7-13.01,75.29-13.07,151.28-.21,226.59Z"/> <path d="M582.86,425.3c-4.14,29.99-9.64,59.49-17.21,88.81-26.27,7.69-51.13,10.77-78.49,9.97-6.48-141.03-6.48-282.65,0-423.67,27.37-.8,52.22,2.28,78.49,9.97,7.3,28.25,12.68,56.67,16.78,85.55-19.25-2.65-38.66-4.39-58.08-5.1.74,21.23,1.29,42.46,1.68,63.7,16.88.35,33.76.83,50.63,1.71,1.53,33.46,1.71,66.85.54,100.32-16.99.69-33.99,1.07-50.99,1.35-.36,24.12-.93,48.22-1.74,72.33,19.52-.69,39.03-2.37,58.39-4.94Z"/> <path d="M626.2,482.88c11.46-17.97,18.76-37.43,24.72-57.77-9.66,3.23-19.54,6.09-29.42,8.54-8.3,23.73-17.7,46.71-28.5,69.41-9.11,4.45-13.82,6.42-23.5,9.77,42-117,75.96-267.94,28.9-388.66,9.73,5.44,18.64,11.03,27.77,17.42,62.81,89.58,108.36,229.12,23.89,320.72-7.28,7.4-15.47,14.46-23.86,20.57ZM641.51,347.48c8.14-.54,12.14-.83,19.99-1.44-.56-39.42-6.27-77.4-16.38-115.48,3.75,39.29,2.04,77.89-3.61,116.92Z"/> </svg>